ply
format ascii 1.0
comment Holdable sample sphere
element vertex 425
property float x
property float y
property float z
element face 768
property list uchar int vertex_indices
end_header
0.00000 1.00000 0.00000
0.00000 1.00000 0.00000
0.00000 1.00000 0.00000
0.00000 1.00000 0.00000
0.00000 1.00000 0.00000
0.00000 1.00000 0.00000
0.00000 1.00000 0.00000
-0.00000 1.00000 0.00000
-0.00000 1.00000 0.00000
-0.00000 1.00000 0.00000
-0.00000 1.00000 0.00000
-0.00000 1.00000 0.00000
-0.00000 1.00000 0.00000
-0.00000 1.00000 -0.00000
-0.00000 1.00000 -0.00000
-0.00000 1.00000 -0.00000
-0.00000 1.00000 -0.00000
-0.00000 1.00000 -0.00000
-0.00000 1.00000 -0.00000
0.00000 1.00000 -0.00000
0.00000 1.00000 -0.00000
0.00000 1.00000 -0.00000
0.00000 1.00000 -0.00000
0.00000 1.00000 -0.00000
0.00000 1.00000 -0.00000
0.19509 0.98079 0.00000
0.18844 0.98079 0.05049
0.16895 0.98079 0.09755
0.13795 0.98079 0.13795
0.09755 0.98079 0.16895
0.05049 0.98079 0.18844
0.00000 0.98079 0.19509
-0.05049 0.98079 0.18844
-0.09755 0.98079 0.16895
-0.13795 0.98079 0.13795
-0.16895 0.98079 0.09755
-0.18844 0.98079 0.05049
-0.19509 0.98079 0.00000
-0.18844 0.98079 -0.05049
-0.16895 0.98079 -0.09755
-0.13795 0.98079 -0.13795
-0.09755 0.98079 -0.16895
-0.05049 0.98079 -0.18844
-0.00000 0.98079 -0.19509
0.05049 0.98079 -0.18844
0.09755 0.98079 -0.16895
0.13795 0.98079 -0.13795
0.16895 0.98079 -0.09755
0.18844 0.98079 -0.05049
0.19509 0.98079 -0.00000
0.38268 0.92388 0.00000
0.36964 0.92388 0.09905
0.33141 0.92388 0.19134
0.27060 0.92388 0.27060
0.19134 0.92388 0.33141
0.09905 0.92388 0.36964
0.00000 0.92388 0.38268
-0.09905 0.92388 0.36964
-0.19134 0.92388 0.33141
-0.27060 0.92388 0.27060
-0.33141 0.92388 0.19134
-0.36964 0.92388 0.09905
-0.38268 0.92388 0.00000
-0.36964 0.92388 -0.09905
-0.33141 0.92388 -0.19134
-0.27060 0.92388 -0.27060
-0.19134 0.92388 -0.33141
-0.09905 0.92388 -0.36964
-0.00000 0.92388 -0.38268
0.09905 0.92388 -0.36964
0.19134 0.92388 -0.33141
0.27060 0.92388 -0.27060
0.33141 0.92388 -0.19134
0.36964 0.92388 -0.09905
0.38268 0.92388 -0.00000
0.55557 0.83147 0.00000
0.53664 0.83147 0.14379
0.48114 0.83147 0.27779
0.39285 0.83147 0.39285
0.27779 0.83147 0.48114
0.14379 0.83147 0.53664
0.00000 0.83147 0.55557
-0.14379 0.83147 0.53664
-0.27779 0.83147 0.48114
-0.39285 0.83147 0.39285
-0.48114 0.83147 0.27779
-0.53664 0.83147 0.14379
-0.55557 0.83147 0.00000
-0.53664 0.83147 -0.14379
-0.48114 0.83147 -0.27779
-0.39285 0.83147 -0.39285
-0.27779 0.83147 -0.48114
-0.14379 0.83147 -0.53664
-0.00000 0.83147 -0.55557
0.14379 0.83147 -0.53664
0.27779 0.83147 -0.48114
0.39285 0.83147 -0.39285
0.48114 0.83147 -0.27779
0.53664 0.83147 -0.14379
0.55557 0.83147 -0.00000
0.70711 0.70711 0.00000
0.68301 0.70711 0.18301
0.61237 0.70711 0.35355
0.50000 0.70711 0.50000
0.35355 0.70711 0.61237
0.18301 0.70711 0.68301
0.00000 0.70711 0.70711
-0.18301 0.70711 0.68301
-0.35355 0.70711 0.61237
-0.50000 0.70711 0.50000
-0.61237 0.70711 0.35355
-0.68301 0.70711 0.18301
-0.70711 0.70711 0.00000
-0.68301 0.70711 -0.18301
-0.61237 0.70711 -0.35355
-0.50000 0.70711 -0.50000
-0.35355 0.70711 -0.61237
-0.18301 0.70711 -0.68301
-0.00000 0.70711 -0.70711
0.18301 0.70711 -0.68301
0.35355 0.70711 -0.61237
0.50000 0.70711 -0.50000
0.61237 0.70711 -0.35355
0.68301 0.70711 -0.18301
0.70711 0.70711 -0.00000
0.83147 0.55557 0.00000
0.80314 0.55557 0.21520
0.72007 0.55557 0.41573
0.58794 0.55557 0.58794
0.41573 0.55557 0.72007
0.21520 0.55557 0.80314
0.00000 0.55557 0.83147
-0.21520 0.55557 0.80314
-0.41573 0.55557 0.72007
-0.58794 0.55557 0.58794
-0.72007 0.55557 0.41573
-0.80314 0.55557 0.21520
-0.83147 0.55557 0.00000
-0.80314 0.55557 -0.21520
-0.72007 0.55557 -0.41573
-0.58794 0.55557 -0.58794
-0.41573 0.55557 -0.72007
-0.21520 0.55557 -0.80314
-0.00000 0.55557 -0.83147
0.21520 0.55557 -0.80314
0.41573 0.55557 -0.72007
0.58794 0.55557 -0.58794
0.72007 0.55557 -0.41573
0.80314 0.55557 -0.21520
0.83147 0.55557 -0.00000
0.92388 0.38268 0.00000
0.89240 0.38268 0.23912
0.80010 0.38268 0.46194
0.65328 0.38268 0.65328
0.46194 0.38268 0.80010
0.23912 0.38268 0.89240
0.00000 0.38268 0.92388
-0.23912 0.38268 0.89240
-0.46194 0.38268 0.80010
-0.65328 0.38268 0.65328
-0.80010 0.38268 0.46194
-0.89240 0.38268 0.23912
-0.92388 0.38268 0.00000
-0.89240 0.38268 -0.23912
-0.80010 0.38268 -0.46194
-0.65328 0.38268 -0.65328
-0.46194 0.38268 -0.80010
-0.23912 0.38268 -0.89240
-0.00000 0.38268 -0.92388
0.23912 0.38268 -0.89240
0.46194 0.38268 -0.80010
0.65328 0.38268 -0.65328
0.80010 0.38268 -0.46194
0.89240 0.38268 -0.23912
0.92388 0.38268 -0.00000
0.98079 0.19509 0.00000
0.94737 0.19509 0.25385
0.84938 0.19509 0.49039
0.69352 0.19509 0.69352
0.49039 0.19509 0.84938
0.25385 0.19509 0.94737
0.00000 0.19509 0.98079
-0.25385 0.19509 0.94737
-0.49039 0.19509 0.84938
-0.69352 0.19509 0.69352
-0.84938 0.19509 0.49039
-0.94737 0.19509 0.25385
-0.98079 0.19509 0.00000
-0.94737 0.19509 -0.25385
-0.84938 0.19509 -0.49039
-0.69352 0.19509 -0.69352
-0.49039 0.19509 -0.84938
-0.25385 0.19509 -0.94737
-0.00000 0.19509 -0.98079
0.25385 0.19509 -0.94737
0.49039 0.19509 -0.84938
0.69352 0.19509 -0.69352
0.84938 0.19509 -0.49039
0.94737 0.19509 -0.25385
0.98079 0.19509 -0.00000
1.00000 0.00000 0.00000
0.96593 0.00000 0.25882
0.86603 0.00000 0.50000
0.70711 0.00000 0.70711
0.50000 0.00000 0.86603
0.25882 0.00000 0.96593
0.00000 0.00000 1.00000
-0.25882 0.00000 0.96593
-0.50000 0.00000 0.86603
-0.70711 0.00000 0.70711
-0.86603 0.00000 0.50000
-0.96593 0.00000 0.25882
-1.00000 0.00000 0.00000
-0.96593 0.00000 -0.25882
-0.86603 0.00000 -0.50000
-0.70711 0.00000 -0.70711
-0.50000 0.00000 -0.86603
-0.25882 0.00000 -0.96593
-0.00000 0.00000 -1.00000
0.25882 0.00000 -0.96593
0.50000 0.00000 -0.86603
0.70711 0.00000 -0.70711
0.86603 0.00000 -0.50000
0.96593 0.00000 -0.25882
1.00000 0.00000 -0.00000
0.98079 -0.19509 0.00000
0.94737 -0.19509 0.25385
0.84938 -0.19509 0.49039
0.69352 -0.19509 0.69352
0.49039 -0.19509 0.84938
0.25385 -0.19509 0.94737
0.00000 -0.19509 0.98079
-0.25385 -0.19509 0.94737
-0.49039 -0.19509 0.84938
-0.69352 -0.19509 0.69352
-0.84938 -0.19509 0.49039
-0.94737 -0.19509 0.25385
-0.98079 -0.19509 0.00000
-0.94737 -0.19509 -0.25385
-0.84938 -0.19509 -0.49039
-0.69352 -0.19509 -0.69352
-0.49039 -0.19509 -0.84938
-0.25385 -0.19509 -0.94737
-0.00000 -0.19509 -0.98079
0.25385 -0.19509 -0.94737
0.49039 -0.19509 -0.84938
0.69352 -0.19509 -0.69352
0.84938 -0.19509 -0.49039
0.94737 -0.19509 -0.25385
0.98079 -0.19509 -0.00000
0.92388 -0.38268 0.00000
0.89240 -0.38268 0.23912
0.80010 -0.38268 0.46194
0.65328 -0.38268 0.65328
0.46194 -0.38268 0.80010
0.23912 -0.38268 0.89240
0.00000 -0.38268 0.92388
-0.23912 -0.38268 0.89240
-0.46194 -0.38268 0.80010
-0.65328 -0.38268 0.65328
-0.80010 -0.38268 0.46194
-0.89240 -0.38268 0.23912
-0.92388 -0.38268 0.00000
-0.89240 -0.38268 -0.23912
-0.80010 -0.38268 -0.46194
-0.65328 -0.38268 -0.65328
-0.46194 -0.38268 -0.80010
-0.23912 -0.38268 -0.89240
-0.00000 -0.38268 -0.92388
0.23912 -0.38268 -0.89240
0.46194 -0.38268 -0.80010
0.65328 -0.38268 -0.65328
0.80010 -0.38268 -0.46194
0.89240 -0.38268 -0.23912
0.92388 -0.38268 -0.00000
0.83147 -0.55557 0.00000
0.80314 -0.55557 0.21520
0.72007 -0.55557 0.41573
0.58794 -0.55557 0.58794
0.41573 -0.55557 0.72007
0.21520 -0.55557 0.80314
0.00000 -0.55557 0.83147
-0.21520 -0.55557 0.80314
-0.41573 -0.55557 0.72007
-0.58794 -0.55557 0.58794
-0.72007 -0.55557 0.41573
-0.80314 -0.55557 0.21520
-0.83147 -0.55557 0.00000
-0.80314 -0.55557 -0.21520
-0.72007 -0.55557 -0.41573
-0.58794 -0.55557 -0.58794
-0.41573 -0.55557 -0.72007
-0.21520 -0.55557 -0.80314
-0.00000 -0.55557 -0.83147
0.21520 -0.55557 -0.80314
0.41573 -0.55557 -0.72007
0.58794 -0.55557 -0.58794
0.72007 -0.55557 -0.41573
0.80314 -0.55557 -0.21520
0.83147 -0.55557 -0.00000
0.70711 -0.70711 0.00000
0.68301 -0.70711 0.18301
0.61237 -0.70711 0.35355
0.50000 -0.70711 0.50000
0.35355 -0.70711 0.61237
0.18301 -0.70711 0.68301
0.00000 -0.70711 0.70711
-0.18301 -0.70711 0.68301
-0.35355 -0.70711 0.61237
-0.50000 -0.70711 0.50000
-0.61237 -0.70711 0.35355
-0.68301 -0.70711 0.18301
-0.70711 -0.70711 0.00000
-0.68301 -0.70711 -0.18301
-0.61237 -0.70711 -0.35355
-0.50000 -0.70711 -0.50000
-0.35355 -0.70711 -0.61237
-0.18301 -0.70711 -0.68301
-0.00000 -0.70711 -0.70711
0.18301 -0.70711 -0.68301
0.35355 -0.70711 -0.61237
0.50000 -0.70711 -0.50000
0.61237 -0.70711 -0.35355
0.68301 -0.70711 -0.18301
0.70711 -0.70711 -0.00000
0.55557 -0.83147 0.00000
0.53664 -0.83147 0.14379
0.48114 -0.83147 0.27779
0.39285 -0.83147 0.39285
0.27779 -0.83147 0.48114
0.14379 -0.83147 0.53664
0.00000 -0.83147 0.55557
-0.14379 -0.83147 0.53664
-0.27779 -0.83147 0.48114
-0.39285 -0.83147 0.39285
-0.48114 -0.83147 0.27779
-0.53664 -0.83147 0.14379
-0.55557 -0.83147 0.00000
-0.53664 -0.83147 -0.14379
-0.48114 -0.83147 -0.27779
-0.39285 -0.83147 -0.39285
-0.27779 -0.83147 -0.48114
-0.14379 -0.83147 -0.53664
-0.00000 -0.83147 -0.55557
0.14379 -0.83147 -0.53664
0.27779 -0.83147 -0.48114
0.39285 -0.83147 -0.39285
0.48114 -0.83147 -0.27779
0.53664 -0.83147 -0.14379
0.55557 -0.83147 -0.00000
0.38268 -0.92388 0.00000
0.36964 -0.92388 0.09905
0.33141 -0.92388 0.19134
0.27060 -0.92388 0.27060
0.19134 -0.92388 0.33141
0.09905 -0.92388 0.36964
0.00000 -0.92388 0.38268
-0.09905 -0.92388 0.36964
-0.19134 -0.92388 0.33141
-0.27060 -0.92388 0.27060
-0.33141 -0.92388 0.19134
-0.36964 -0.92388 0.09905
-0.38268 -0.92388 0.00000
-0.36964 -0.92388 -0.09905
-0.33141 -0.92388 -0.19134
-0.27060 -0.92388 -0.27060
-0.19134 -0.92388 -0.33141
-0.09905 -0.92388 -0.36964
-0.00000 -0.92388 -0.38268
0.09905 -0.92388 -0.36964
0.19134 -0.92388 -0.33141
0.27060 -0.92388 -0.27060
0.33141 -0.92388 -0.19134
0.36964 -0.92388 -0.09905
0.38268 -0.92388 -0.00000
0.19509 -0.98079 0.00000
0.18844 -0.98079 0.05049
0.16895 -0.98079 0.09755
0.13795 -0.98079 0.13795
0.09755 -0.98079 0.16895
0.05049 -0.98079 0.18844
0.00000 -0.98079 0.19509
-0.05049 -0.98079 0.18844
-0.09755 -0.98079 0.16895
-0.13795 -0.98079 0.13795
-0.16895 -0.98079 0.09755
-0.18844 -0.98079 0.05049
-0.19509 -0.98079 0.00000
-0.18844 -0.98079 -0.05049
-0.16895 -0.98079 -0.09755
-0.13795 -0.98079 -0.13795
-0.09755 -0.98079 -0.16895
-0.05049 -0.98079 -0.18844
-0.00000 -0.98079 -0.19509
0.05049 -0.98079 -0.18844
0.09755 -0.98079 -0.16895
0.13795 -0.98079 -0.13795
0.16895 -0.98079 -0.09755
0.18844 -0.98079 -0.05049
0.19509 -0.98079 -0.00000
0.00000 -1.00000 0.00000
0.00000 -1.00000 0.00000
0.00000 -1.00000 0.00000
0.00000 -1.00000 0.00000
0.00000 -1.00000 0.00000
0.00000 -1.00000 0.00000
0.00000 -1.00000 0.00000
-0.00000 -1.00000 0.00000
-0.00000 -1.00000 0.00000
-0.00000 -1.00000 0.00000
-0.00000 -1.00000 0.00000
-0.00000 -1.00000 0.00000
-0.00000 -1.00000 0.00000
-0.00000 -1.00000 -0.00000
-0.00000 -1.00000 -0.00000
-0.00000 -1.00000 -0.00000
-0.00000 -1.00000 -0.00000
-0.00000 -1.00000 -0.00000
-0.00000 -1.00000 -0.00000
0.00000 -1.00000 -0.00000
0.00000 -1.00000 -0.00000
0.00000 -1.00000 -0.00000
0.00000 -1.00000 -0.00000
0.00000 -1.00000 -0.00000
0.00000 -1.00000 -0.00000
3 0 25 1
3 1 25 26
3 1 26 2
3 2 26 27
3 2 27 3
3 3 27 28
3 3 28 4
3 4 28 29
3 4 29 5
3 5 29 30
3 5 30 6
3 6 30 31
3 6 31 7
3 7 31 32
3 7 32 8
3 8 32 33
3 8 33 9
3 9 33 34
3 9 34 10
3 10 34 35
3 10 35 11
3 11 35 36
3 11 36 12
3 12 36 37
3 12 37 13
3 13 37 38
3 13 38 14
3 14 38 39
3 14 39 15
3 15 39 40
3 15 40 16
3 16 40 41
3 16 41 17
3 17 41 42
3 17 42 18
3 18 42 43
3 18 43 19
3 19 43 44
3 19 44 20
3 20 44 45
3 20 45 21
3 21 45 46
3 21 46 22
3 22 46 47
3 22 47 23
3 23 47 48
3 23 48 24
3 24 48 49
3 25 50 26
3 26 50 51
3 26 51 27
3 27 51 52
3 27 52 28
3 28 52 53
3 28 53 29
3 29 53 54
3 29 54 30
3 30 54 55
3 30 55 31
3 31 55 56
3 31 56 32
3 32 56 57
3 32 57 33
3 33 57 58
3 33 58 34
3 34 58 59
3 34 59 35
3 35 59 60
3 35 60 36
3 36 60 61
3 36 61 37
3 37 61 62
3 37 62 38
3 38 62 63
3 38 63 39
3 39 63 64
3 39 64 40
3 40 64 65
3 40 65 41
3 41 65 66
3 41 66 42
3 42 66 67
3 42 67 43
3 43 67 68
3 43 68 44
3 44 68 69
3 44 69 45
3 45 69 70
3 45 70 46
3 46 70 71
3 46 71 47
3 47 71 72
3 47 72 48
3 48 72 73
3 48 73 49
3 49 73 74
3 50 75 51
3 51 75 76
3 51 76 52
3 52 76 77
3 52 77 53
3 53 77 78
3 53 78 54
3 54 78 79
3 54 79 55
3 55 79 80
3 55 80 56
3 56 80 81
3 56 81 57
3 57 81 82
3 57 82 58
3 58 82 83
3 58 83 59
3 59 83 84
3 59 84 60
3 60 84 85
3 60 85 61
3 61 85 86
3 61 86 62
3 62 86 87
3 62 87 63
3 63 87 88
3 63 88 64
3 64 88 89
3 64 89 65
3 65 89 90
3 65 90 66
3 66 90 91
3 66 91 67
3 67 91 92
3 67 92 68
3 68 92 93
3 68 93 69
3 69 93 94
3 69 94 70
3 70 94 95
3 70 95 71
3 71 95 96
3 71 96 72
3 72 96 97
3 72 97 73
3 73 97 98
3 73 98 74
3 74 98 99
3 75 100 76
3 76 100 101
3 76 101 77
3 77 101 102
3 77 102 78
3 78 102 103
3 78 103 79
3 79 103 104
3 79 104 80
3 80 104 105
3 80 105 81
3 81 105 106
3 81 106 82
3 82 106 107
3 82 107 83
3 83 107 108
3 83 108 84
3 84 108 109
3 84 109 85
3 85 109 110
3 85 110 86
3 86 110 111
3 86 111 87
3 87 111 112
3 87 112 88
3 88 112 113
3 88 113 89
3 89 113 114
3 89 114 90
3 90 114 115
3 90 115 91
3 91 115 116
3 91 116 92
3 92 116 117
3 92 117 93
3 93 117 118
3 93 118 94
3 94 118 119
3 94 119 95
3 95 119 120
3 95 120 96
3 96 120 121
3 96 121 97
3 97 121 122
3 97 122 98
3 98 122 123
3 98 123 99
3 99 123 124
3 100 125 101
3 101 125 126
3 101 126 102
3 102 126 127
3 102 127 103
3 103 127 128
3 103 128 104
3 104 128 129
3 104 129 105
3 105 129 130
3 105 130 106
3 106 130 131
3 106 131 107
3 107 131 132
3 107 132 108
3 108 132 133
3 108 133 109
3 109 133 134
3 109 134 110
3 110 134 135
3 110 135 111
3 111 135 136
3 111 136 112
3 112 136 137
3 112 137 113
3 113 137 138
3 113 138 114
3 114 138 139
3 114 139 115
3 115 139 140
3 115 140 116
3 116 140 141
3 116 141 117
3 117 141 142
3 117 142 118
3 118 142 143
3 118 143 119
3 119 143 144
3 119 144 120
3 120 144 145
3 120 145 121
3 121 145 146
3 121 146 122
3 122 146 147
3 122 147 123
3 123 147 148
3 123 148 124
3 124 148 149
3 125 150 126
3 126 150 151
3 126 151 127
3 127 151 152
3 127 152 128
3 128 152 153
3 128 153 129
3 129 153 154
3 129 154 130
3 130 154 155
3 130 155 131
3 131 155 156
3 131 156 132
3 132 156 157
3 132 157 133
3 133 157 158
3 133 158 134
3 134 158 159
3 134 159 135
3 135 159 160
3 135 160 136
3 136 160 161
3 136 161 137
3 137 161 162
3 137 162 138
3 138 162 163
3 138 163 139
3 139 163 164
3 139 164 140
3 140 164 165
3 140 165 141
3 141 165 166
3 141 166 142
3 142 166 167
3 142 167 143
3 143 167 168
3 143 168 144
3 144 168 169
3 144 169 145
3 145 169 170
3 145 170 146
3 146 170 171
3 146 171 147
3 147 171 172
3 147 172 148
3 148 172 173
3 148 173 149
3 149 173 174
3 150 175 151
3 151 175 176
3 151 176 152
3 152 176 177
3 152 177 153
3 153 177 178
3 153 178 154
3 154 178 179
3 154 179 155
3 155 179 180
3 155 180 156
3 156 180 181
3 156 181 157
3 157 181 182
3 157 182 158
3 158 182 183
3 158 183 159
3 159 183 184
3 159 184 160
3 160 184 185
3 160 185 161
3 161 185 186
3 161 186 162
3 162 186 187
3 162 187 163
3 163 187 188
3 163 188 164
3 164 188 189
3 164 189 165
3 165 189 190
3 165 190 166
3 166 190 191
3 166 191 167
3 167 191 192
3 167 192 168
3 168 192 193
3 168 193 169
3 169 193 194
3 169 194 170
3 170 194 195
3 170 195 171
3 171 195 196
3 171 196 172
3 172 196 197
3 172 197 173
3 173 197 198
3 173 198 174
3 174 198 199
3 175 200 176
3 176 200 201
3 176 201 177
3 177 201 202
3 177 202 178
3 178 202 203
3 178 203 179
3 179 203 204
3 179 204 180
3 180 204 205
3 180 205 181
3 181 205 206
3 181 206 182
3 182 206 207
3 182 207 183
3 183 207 208
3 183 208 184
3 184 208 209
3 184 209 185
3 185 209 210
3 185 210 186
3 186 210 211
3 186 211 187
3 187 211 212
3 187 212 188
3 188 212 213
3 188 213 189
3 189 213 214
3 189 214 190
3 190 214 215
3 190 215 191
3 191 215 216
3 191 216 192
3 192 216 217
3 192 217 193
3 193 217 218
3 193 218 194
3 194 218 219
3 194 219 195
3 195 219 220
3 195 220 196
3 196 220 221
3 196 221 197
3 197 221 222
3 197 222 198
3 198 222 223
3 198 223 199
3 199 223 224
3 200 225 201
3 201 225 226
3 201 226 202
3 202 226 227
3 202 227 203
3 203 227 228
3 203 228 204
3 204 228 229
3 204 229 205
3 205 229 230
3 205 230 206
3 206 230 231
3 206 231 207
3 207 231 232
3 207 232 208
3 208 232 233
3 208 233 209
3 209 233 234
3 209 234 210
3 210 234 235
3 210 235 211
3 211 235 236
3 211 236 212
3 212 236 237
3 212 237 213
3 213 237 238
3 213 238 214
3 214 238 239
3 214 239 215
3 215 239 240
3 215 240 216
3 216 240 241
3 216 241 217
3 217 241 242
3 217 242 218
3 218 242 243
3 218 243 219
3 219 243 244
3 219 244 220
3 220 244 245
3 220 245 221
3 221 245 246
3 221 246 222
3 222 246 247
3 222 247 223
3 223 247 248
3 223 248 224
3 224 248 249
3 225 250 226
3 226 250 251
3 226 251 227
3 227 251 252
3 227 252 228
3 228 252 253
3 228 253 229
3 229 253 254
3 229 254 230
3 230 254 255
3 230 255 231
3 231 255 256
3 231 256 232
3 232 256 257
3 232 257 233
3 233 257 258
3 233 258 234
3 234 258 259
3 234 259 235
3 235 259 260
3 235 260 236
3 236 260 261
3 236 261 237
3 237 261 262
3 237 262 238
3 238 262 263
3 238 263 239
3 239 263 264
3 239 264 240
3 240 264 265
3 240 265 241
3 241 265 266
3 241 266 242
3 242 266 267
3 242 267 243
3 243 267 268
3 243 268 244
3 244 268 269
3 244 269 245
3 245 269 270
3 245 270 246
3 246 270 271
3 246 271 247
3 247 271 272
3 247 272 248
3 248 272 273
3 248 273 249
3 249 273 274
3 250 275 251
3 251 275 276
3 251 276 252
3 252 276 277
3 252 277 253
3 253 277 278
3 253 278 254
3 254 278 279
3 254 279 255
3 255 279 280
3 255 280 256
3 256 280 281
3 256 281 257
3 257 281 282
3 257 282 258
3 258 282 283
3 258 283 259
3 259 283 284
3 259 284 260
3 260 284 285
3 260 285 261
3 261 285 286
3 261 286 262
3 262 286 287
3 262 287 263
3 263 287 288
3 263 288 264
3 264 288 289
3 264 289 265
3 265 289 290
3 265 290 266
3 266 290 291
3 266 291 267
3 267 291 292
3 267 292 268
3 268 292 293
3 268 293 269
3 269 293 294
3 269 294 270
3 270 294 295
3 270 295 271
3 271 295 296
3 271 296 272
3 272 296 297
3 272 297 273
3 273 297 298
3 273 298 274
3 274 298 299
3 275 300 276
3 276 300 301
3 276 301 277
3 277 301 302
3 277 302 278
3 278 302 303
3 278 303 279
3 279 303 304
3 279 304 280
3 280 304 305
3 280 305 281
3 281 305 306
3 281 306 282
3 282 306 307
3 282 307 283
3 283 307 308
3 283 308 284
3 284 308 309
3 284 309 285
3 285 309 310
3 285 310 286
3 286 310 311
3 286 311 287
3 287 311 312
3 287 312 288
3 288 312 313
3 288 313 289
3 289 313 314
3 289 314 290
3 290 314 315
3 290 315 291
3 291 315 316
3 291 316 292
3 292 316 317
3 292 317 293
3 293 317 318
3 293 318 294
3 294 318 319
3 294 319 295
3 295 319 320
3 295 320 296
3 296 320 321
3 296 321 297
3 297 321 322
3 297 322 298
3 298 322 323
3 298 323 299
3 299 323 324
3 300 325 301
3 301 325 326
3 301 326 302
3 302 326 327
3 302 327 303
3 303 327 328
3 303 328 304
3 304 328 329
3 304 329 305
3 305 329 330
3 305 330 306
3 306 330 331
3 306 331 307
3 307 331 332
3 307 332 308
3 308 332 333
3 308 333 309
3 309 333 334
3 309 334 310
3 310 334 335
3 310 335 311
3 311 335 336
3 311 336 312
3 312 336 337
3 312 337 313
3 313 337 338
3 313 338 314
3 314 338 339
3 314 339 315
3 315 339 340
3 315 340 316
3 316 340 341
3 316 341 317
3 317 341 342
3 317 342 318
3 318 342 343
3 318 343 319
3 319 343 344
3 319 344 320
3 320 344 345
3 320 345 321
3 321 345 346
3 321 346 322
3 322 346 347
3 322 347 323
3 323 347 348
3 323 348 324
3 324 348 349
3 325 350 326
3 326 350 351
3 326 351 327
3 327 351 352
3 327 352 328
3 328 352 353
3 328 353 329
3 329 353 354
3 329 354 330
3 330 354 355
3 330 355 331
3 331 355 356
3 331 356 332
3 332 356 357
3 332 357 333
3 333 357 358
3 333 358 334
3 334 358 359
3 334 359 335
3 335 359 360
3 335 360 336
3 336 360 361
3 336 361 337
3 337 361 362
3 337 362 338
3 338 362 363
3 338 363 339
3 339 363 364
3 339 364 340
3 340 364 365
3 340 365 341
3 341 365 366
3 341 366 342
3 342 366 367
3 342 367 343
3 343 367 368
3 343 368 344
3 344 368 369
3 344 369 345
3 345 369 370
3 345 370 346
3 346 370 371
3 346 371 347
3 347 371 372
3 347 372 348
3 348 372 373
3 348 373 349
3 349 373 374
3 350 375 351
3 351 375 376
3 351 376 352
3 352 376 377
3 352 377 353
3 353 377 378
3 353 378 354
3 354 378 379
3 354 379 355
3 355 379 380
3 355 380 356
3 356 380 381
3 356 381 357
3 357 381 382
3 357 382 358
3 358 382 383
3 358 383 359
3 359 383 384
3 359 384 360
3 360 384 385
3 360 385 361
3 361 385 386
3 361 386 362
3 362 386 387
3 362 387 363
3 363 387 388
3 363 388 364
3 364 388 389
3 364 389 365
3 365 389 390
3 365 390 366
3 366 390 391
3 366 391 367
3 367 391 392
3 367 392 368
3 368 392 393
3 368 393 369
3 369 393 394
3 369 394 370
3 370 394 395
3 370 395 371
3 371 395 396
3 371 396 372
3 372 396 397
3 372 397 373
3 373 397 398
3 373 398 374
3 374 398 399
3 375 400 376
3 376 400 401
3 376 401 377
3 377 401 402
3 377 402 378
3 378 402 403
3 378 403 379
3 379 403 404
3 379 404 380
3 380 404 405
3 380 405 381
3 381 405 406
3 381 406 382
3 382 406 407
3 382 407 383
3 383 407 408
3 383 408 384
3 384 408 409
3 384 409 385
3 385 409 410
3 385 410 386
3 386 410 411
3 386 411 387
3 387 411 412
3 387 412 388
3 388 412 413
3 388 413 389
3 389 413 414
3 389 414 390
3 390 414 415
3 390 415 391
3 391 415 416
3 391 416 392
3 392 416 417
3 392 417 393
3 393 417 418
3 393 418 394
3 394 418 419
3 394 419 395
3 395 419 420
3 395 420 396
3 396 420 421
3 396 421 397
3 397 421 422
3 397 422 398
3 398 422 423
3 398 423 399
3 399 423 424
