solid tetrahedron
 facet normal 0.5773502691896258 0.5773502691896258 -0.5773502691896258
  outer loop
   vertex 1 1 1
   vertex 1 -1 -1
   vertex -1 1 -1
  endloop
 endfacet
 facet normal 0.5773502691896258 -0.5773502691896258 0.5773502691896258
  outer loop
   vertex 1 1 1
   vertex -1 -1 1
   vertex 1 -1 -1
  endloop
 endfacet
 facet normal -0.5773502691896258 0.5773502691896258 0.5773502691896258
  outer loop
   vertex 1 1 1
   vertex -1 1 -1
   vertex -1 -1 1
  endloop
 endfacet
 facet normal -0.5773502691896258 -0.5773502691896258 -0.5773502691896258
  outer loop
   vertex 1 -1 -1
   vertex -1 -1 1
   vertex -1 1 -1
  endloop
 endfacet
endsolid tetrahedron
