<?xml version="1.0" encoding="utf-8"?>
<COLLADA xmlns="http://www.collada.org/2005/11/COLLADASchema" version="1.4.1">
  <asset>
    <contributor><authoring_tool>Holdable sample generator</authoring_tool></contributor>
    <up_axis>Z_UP</up_axis>
  </asset>
  <library_geometries>
    <geometry id="vase" name="Vase">
      <mesh>
        <source id="vase-positions">
          <float_array id="vase-positions-array" count="4230">14.0000 0.0000 0.0000 13.9326 1.3722 0.0000 13.7310 2.7313 0.0000 13.3972 4.0640 0.0000 12.9343 5.3576 0.0000 12.3469 6.5996 0.0000 11.6406 7.7780 0.0000 10.8221 8.8815 0.0000 9.8995 9.8995 0.0000 8.8815 10.8221 0.0000 7.7780 11.6406 0.0000 6.5996 12.3469 0.0000 5.3576 12.9343 0.0000 4.0640 13.3972 0.0000 2.7313 13.7310 0.0000 1.3722 13.9326 0.0000 0.0000 14.0000 0.0000 -1.3722 13.9326 0.0000 -2.7313 13.7310 0.0000 -4.0640 13.3972 0.0000 -5.3576 12.9343 0.0000 -6.5996 12.3469 0.0000 -7.7780 11.6406 0.0000 -8.8815 10.8221 0.0000 -9.8995 9.8995 0.0000 -10.8221 8.8815 0.0000 -11.6406 7.7780 0.0000 -12.3469 6.5996 0.0000 -12.9343 5.3576 0.0000 -13.3972 4.0640 0.0000 -13.7310 2.7313 0.0000 -13.9326 1.3722 0.0000 -14.0000 0.0000 0.0000 -13.9326 -1.3722 0.0000 -13.7310 -2.7313 0.0000 -13.3972 -4.0640 0.0000 -12.9343 -5.3576 0.0000 -12.3469 -6.5996 0.0000 -11.6406 -7.7780 0.0000 -10.8221 -8.8815 0.0000 -9.8995 -9.8995 0.0000 -8.8815 -10.8221 0.0000 -7.7780 -11.6406 0.0000 -6.5996 -12.3469 0.0000 -5.3576 -12.9343 0.0000 -4.0640 -13.3972 0.0000 -2.7313 -13.7310 0.0000 -1.3722 -13.9326 0.0000 -0.0000 -14.0000 0.0000 1.3722 -13.9326 0.0000 2.7313 -13.7310 0.0000 4.0640 -13.3972 0.0000 5.3576 -12.9343 0.0000 6.5996 -12.3469 0.0000 7.7780 -11.6406 0.0000 8.8815 -10.8221 0.0000 9.8995 -9.8995 0.0000 10.8221 -8.8815 0.0000 11.6406 -7.7780 0.0000 12.3469 -6.5996 0.0000 12.9343 -5.3576 0.0000 13.3972 -4.0640 0.0000 13.7310 -2.7313 0.0000 13.9326 -1.3722 0.0000 16.0000 0.0000 1.5000 15.9230 1.5683 1.5000 15.6926 3.1214 1.5000 15.3110 4.6446 1.5000 14.7821 6.1229 1.5000 14.1107 7.5423 1.5000 13.3035 8.8891 1.5000 12.3682 10.1503 1.5000 11.3137 11.3137 1.5000 10.1503 12.3682 1.5000 8.8891 13.3035 1.5000 7.5423 14.1107 1.5000 6.1229 14.7821 1.5000 4.6446 15.3110 1.5000 3.1214 15.6926 1.5000 1.5683 15.9230 1.5000 0.0000 16.0000 1.5000 -1.5683 15.9230 1.5000 -3.1214 15.6926 1.5000 -4.6446 15.3110 1.5000 -6.1229 14.7821 1.5000 -7.5423 14.1107 1.5000 -8.8891 13.3035 1.5000 -10.1503 12.3682 1.5000 -11.3137 11.3137 1.5000 -12.3682 10.1503 1.5000 -13.3035 8.8891 1.5000 -14.1107 7.5423 1.5000 -14.7821 6.1229 1.5000 -15.3110 4.6446 1.5000 -15.6926 3.1214 1.5000 -15.9230 1.5683 1.5000 -16.0000 0.0000 1.5000 -15.9230 -1.5683 1.5000 -15.6926 -3.1214 1.5000 -15.3110 -4.6446 1.5000 -14.7821 -6.1229 1.5000 -14.1107 -7.5423 1.5000 -13.3035 -8.8891 1.5000 -12.3682 -10.1503 1.5000 -11.3137 -11.3137 1.5000 -10.1503 -12.3682 1.5000 -8.8891 -13.3035 1.5000 -7.5423 -14.1107 1.5000 -6.1229 -14.7821 1.5000 -4.6446 -15.3110 1.5000 -3.1214 -15.6926 1.5000 -1.5683 -15.9230 1.5000 -0.0000 -16.0000 1.5000 1.5683 -15.9230 1.5000 3.1214 -15.6926 1.5000 4.6446 -15.3110 1.5000 6.1229 -14.7821 1.5000 7.5423 -14.1107 1.5000 8.8891 -13.3035 1.5000 10.1503 -12.3682 1.5000 11.3137 -11.3137 1.5000 12.3682 -10.1503 1.5000 13.3035 -8.8891 1.5000 14.1107 -7.5423 1.5000 14.7821 -6.1229 1.5000 15.3110 -4.6446 1.5000 15.6926 -3.1214 1.5000 15.9230 -1.5683 1.5000 16.5000 0.0000 3.0000 16.4205 1.6173 3.0000 16.1830 3.2190 3.0000 15.7895 4.7897 3.0000 15.2440 6.3143 3.0000 14.5517 7.7780 3.0000 13.7192 9.1669 3.0000 12.7547 10.4675 3.0000 11.6673 11.6673 3.0000 10.4675 12.7547 3.0000 9.1669 13.7192 3.0000 7.7780 14.5517 3.0000 6.3143 15.2440 3.0000 4.7897 15.7895 3.0000 3.2190 16.1830 3.0000 1.6173 16.4205 3.0000 0.0000 16.5000 3.0000 -1.6173 16.4205 3.0000 -3.2190 16.1830 3.0000 -4.7897 15.7895 3.0000 -6.3143 15.2440 3.0000 -7.7780 14.5517 3.0000 -9.1669 13.7192 3.0000 -10.4675 12.7547 3.0000 -11.6673 11.6673 3.0000 -12.7547 10.4675 3.0000 -13.7192 9.1669 3.0000 -14.5517 7.7780 3.0000 -15.2440 6.3143 3.0000 -15.7895 4.7897 3.0000 -16.1830 3.2190 3.0000 -16.4205 1.6173 3.0000 -16.5000 0.0000 3.0000 -16.4205 -1.6173 3.0000 -16.1830 -3.2190 3.0000 -15.7895 -4.7897 3.0000 -15.2440 -6.3143 3.0000 -14.5517 -7.7780 3.0000 -13.7192 -9.1669 3.0000 -12.7547 -10.4675 3.0000 -11.6673 -11.6673 3.0000 -10.4675 -12.7547 3.0000 -9.1669 -13.7192 3.0000 -7.7780 -14.5517 3.0000 -6.3143 -15.2440 3.0000 -4.7897 -15.7895 3.0000 -3.2190 -16.1830 3.0000 -1.6173 -16.4205 3.0000 -0.0000 -16.5000 3.0000 1.6173 -16.4205 3.0000 3.2190 -16.1830 3.0000 4.7897 -15.7895 3.0000 6.3143 -15.2440 3.0000 7.7780 -14.5517 3.0000 9.1669 -13.7192 3.0000 10.4675 -12.7547 3.0000 11.6673 -11.6673 3.0000 12.7547 -10.4675 3.0000 13.7192 -9.1669 3.0000 14.5517 -7.7780 3.0000 15.2440 -6.3143 3.0000 15.7895 -4.7897 3.0000 16.1830 -3.2190 3.0000 16.4205 -1.6173 3.0000 13.0000 0.0000 5.0000 12.9374 1.2742 5.0000 12.7502 2.5362 5.0000 12.4402 3.7737 5.0000 12.0104 4.9749 5.0000 11.4650 6.1282 5.0000 10.8091 7.2224 5.0000 10.0491 8.2471 5.0000 9.1924 9.1924 5.0000 8.2471 10.0491 5.0000 7.2224 10.8091 5.0000 6.1282 11.4650 5.0000 4.9749 12.0104 5.0000 3.7737 12.4402 5.0000 2.5362 12.7502 5.0000 1.2742 12.9374 5.0000 0.0000 13.0000 5.0000 -1.2742 12.9374 5.0000 -2.5362 12.7502 5.0000 -3.7737 12.4402 5.0000 -4.9749 12.0104 5.0000 -6.1282 11.4650 5.0000 -7.2224 10.8091 5.0000 -8.2471 10.0491 5.0000 -9.1924 9.1924 5.0000 -10.0491 8.2471 5.0000 -10.8091 7.2224 5.0000 -11.4650 6.1282 5.0000 -12.0104 4.9749 5.0000 -12.4402 3.7737 5.0000 -12.7502 2.5362 5.0000 -12.9374 1.2742 5.0000 -13.0000 0.0000 5.0000 -12.9374 -1.2742 5.0000 -12.7502 -2.5362 5.0000 -12.4402 -3.7737 5.0000 -12.0104 -4.9749 5.0000 -11.4650 -6.1282 5.0000 -10.8091 -7.2224 5.0000 -10.0491 -8.2471 5.0000 -9.1924 -9.1924 5.0000 -8.2471 -10.0491 5.0000 -7.2224 -10.8091 5.0000 -6.1282 -11.4650 5.0000 -4.9749 -12.0104 5.0000 -3.7737 -12.4402 5.0000 -2.5362 -12.7502 5.0000 -1.2742 -12.9374 5.0000 -0.0000 -13.0000 5.0000 1.2742 -12.9374 5.0000 2.5362 -12.7502 5.0000 3.7737 -12.4402 5.0000 4.9749 -12.0104 5.0000 6.1282 -11.4650 5.0000 7.2224 -10.8091 5.0000 8.2471 -10.0491 5.0000 9.1924 -9.1924 5.0000 10.0491 -8.2471 5.0000 10.8091 -7.2224 5.0000 11.4650 -6.1282 5.0000 12.0104 -4.9749 5.0000 12.4402 -3.7737 5.0000 12.7502 -2.5362 5.0000 12.9374 -1.2742 5.0000 12.2000 0.0000 7.0000 12.1413 1.1958 7.0000 11.9656 2.3801 7.0000 11.6747 3.5415 7.0000 11.2713 4.6687 7.0000 10.7594 5.7510 7.0000 10.1439 6.7780 7.0000 9.4307 7.7396 7.0000 8.6267 8.6267 7.0000 7.7396 9.4307 7.0000 6.7780 10.1439 7.0000 5.7510 10.7594 7.0000 4.6687 11.2713 7.0000 3.5415 11.6747 7.0000 2.3801 11.9656 7.0000 1.1958 12.1413 7.0000 0.0000 12.2000 7.0000 -1.1958 12.1413 7.0000 -2.3801 11.9656 7.0000 -3.5415 11.6747 7.0000 -4.6687 11.2713 7.0000 -5.7510 10.7594 7.0000 -6.7780 10.1439 7.0000 -7.7396 9.4307 7.0000 -8.6267 8.6267 7.0000 -9.4307 7.7396 7.0000 -10.1439 6.7780 7.0000 -10.7594 5.7510 7.0000 -11.2713 4.6687 7.0000 -11.6747 3.5415 7.0000 -11.9656 2.3801 7.0000 -12.1413 1.1958 7.0000 -12.2000 0.0000 7.0000 -12.1413 -1.1958 7.0000 -11.9656 -2.3801 7.0000 -11.6747 -3.5415 7.0000 -11.2713 -4.6687 7.0000 -10.7594 -5.7510 7.0000 -10.1439 -6.7780 7.0000 -9.4307 -7.7396 7.0000 -8.6267 -8.6267 7.0000 -7.7396 -9.4307 7.0000 -6.7780 -10.1439 7.0000 -5.7510 -10.7594 7.0000 -4.6687 -11.2713 7.0000 -3.5415 -11.6747 7.0000 -2.3801 -11.9656 7.0000 -1.1958 -12.1413 7.0000 -0.0000 -12.2000 7.0000 1.1958 -12.1413 7.0000 2.3801 -11.9656 7.0000 3.5415 -11.6747 7.0000 4.6687 -11.2713 7.0000 5.7510 -10.7594 7.0000 6.7780 -10.1439 7.0000 7.7396 -9.4307 7.0000 8.6267 -8.6267 7.0000 9.4307 -7.7396 7.0000 10.1439 -6.7780 7.0000 10.7594 -5.7510 7.0000 11.2713 -4.6687 7.0000 11.6747 -3.5415 7.0000 11.9656 -2.3801 7.0000 12.1413 -1.1958 7.0000 14.5000 0.0000 10.0000 14.4302 1.4212 10.0000 14.2214 2.8288 10.0000 13.8756 4.2091 10.0000 13.3963 5.5489 10.0000 12.7879 6.8353 10.0000 12.0563 8.0558 10.0000 11.2087 9.1987 10.0000 10.2530 10.2530 10.0000 9.1987 11.2087 10.0000 8.0558 12.0563 10.0000 6.8353 12.7879 10.0000 5.5489 13.3963 10.0000 4.2091 13.8756 10.0000 2.8288 14.2214 10.0000 1.4212 14.4302 10.0000 0.0000 14.5000 10.0000 -1.4212 14.4302 10.0000 -2.8288 14.2214 10.0000 -4.2091 13.8756 10.0000 -5.5489 13.3963 10.0000 -6.8353 12.7879 10.0000 -8.0558 12.0563 10.0000 -9.1987 11.2087 10.0000 -10.2530 10.2530 10.0000 -11.2087 9.1987 10.0000 -12.0563 8.0558 10.0000 -12.7879 6.8353 10.0000 -13.3963 5.5489 10.0000 -13.8756 4.2091 10.0000 -14.2214 2.8288 10.0000 -14.4302 1.4212 10.0000 -14.5000 0.0000 10.0000 -14.4302 -1.4212 10.0000 -14.2214 -2.8288 10.0000 -13.8756 -4.2091 10.0000 -13.3963 -5.5489 10.0000 -12.7879 -6.8353 10.0000 -12.0563 -8.0558 10.0000 -11.2087 -9.1987 10.0000 -10.2530 -10.2530 10.0000 -9.1987 -11.2087 10.0000 -8.0558 -12.0563 10.0000 -6.8353 -12.7879 10.0000 -5.5489 -13.3963 10.0000 -4.2091 -13.8756 10.0000 -2.8288 -14.2214 10.0000 -1.4212 -14.4302 10.0000 -0.0000 -14.5000 10.0000 1.4212 -14.4302 10.0000 2.8288 -14.2214 10.0000 4.2091 -13.8756 10.0000 5.5489 -13.3963 10.0000 6.8353 -12.7879 10.0000 8.0558 -12.0563 10.0000 9.1987 -11.2087 10.0000 10.2530 -10.2530 10.0000 11.2087 -9.1987 10.0000 12.0563 -8.0558 10.0000 12.7879 -6.8353 10.0000 13.3963 -5.5489 10.0000 13.8756 -4.2091 10.0000 14.2214 -2.8288 10.0000 14.4302 -1.4212 10.0000 17.5000 0.0000 14.0000 17.4157 1.7153 14.0000 17.1637 3.4141 14.0000 16.7465 5.0800 14.0000 16.1679 6.6970 14.0000 15.4336 8.2494 14.0000 14.5507 9.7225 14.0000 13.5277 11.1019 14.0000 12.3744 12.3744 14.0000 11.1019 13.5277 14.0000 9.7225 14.5507 14.0000 8.2494 15.4336 14.0000 6.6970 16.1679 14.0000 5.0800 16.7465 14.0000 3.4141 17.1637 14.0000 1.7153 17.4157 14.0000 0.0000 17.5000 14.0000 -1.7153 17.4157 14.0000 -3.4141 17.1637 14.0000 -5.0800 16.7465 14.0000 -6.6970 16.1679 14.0000 -8.2494 15.4336 14.0000 -9.7225 14.5507 14.0000 -11.1019 13.5277 14.0000 -12.3744 12.3744 14.0000 -13.5277 11.1019 14.0000 -14.5507 9.7225 14.0000 -15.4336 8.2494 14.0000 -16.1679 6.6970 14.0000 -16.7465 5.0800 14.0000 -17.1637 3.4141 14.0000 -17.4157 1.7153 14.0000 -17.5000 0.0000 14.0000 -17.4157 -1.7153 14.0000 -17.1637 -3.4141 14.0000 -16.7465 -5.0800 14.0000 -16.1679 -6.6970 14.0000 -15.4336 -8.2494 14.0000 -14.5507 -9.7225 14.0000 -13.5277 -11.1019 14.0000 -12.3744 -12.3744 14.0000 -11.1019 -13.5277 14.0000 -9.7225 -14.5507 14.0000 -8.2494 -15.4336 14.0000 -6.6970 -16.1679 14.0000 -5.0800 -16.7465 14.0000 -3.4141 -17.1637 14.0000 -1.7153 -17.4157 14.0000 -0.0000 -17.5000 14.0000 1.7153 -17.4157 14.0000 3.4141 -17.1637 14.0000 5.0800 -16.7465 14.0000 6.6970 -16.1679 14.0000 8.2494 -15.4336 14.0000 9.7225 -14.5507 14.0000 11.1019 -13.5277 14.0000 12.3744 -12.3744 14.0000 13.5277 -11.1019 14.0000 14.5507 -9.7225 14.0000 15.4336 -8.2494 14.0000 16.1679 -6.6970 14.0000 16.7465 -5.0800 14.0000 17.1637 -3.4141 14.0000 17.4157 -1.7153 14.0000 20.2000 0.0000 19.0000 20.1027 1.9799 19.0000 19.8119 3.9408 19.0000 19.3302 5.8638 19.0000 18.6624 7.7302 19.0000 17.8148 9.5222 19.0000 16.7957 11.2225 19.0000 15.6148 12.8147 19.0000 14.2836 14.2836 19.0000 12.8147 15.6148 19.0000 11.2225 16.7957 19.0000 9.5222 17.8148 19.0000 7.7302 18.6624 19.0000 5.8638 19.3302 19.0000 3.9408 19.8119 19.0000 1.9799 20.1027 19.0000 0.0000 20.2000 19.0000 -1.9799 20.1027 19.0000 -3.9408 19.8119 19.0000 -5.8638 19.3302 19.0000 -7.7302 18.6624 19.0000 -9.5222 17.8148 19.0000 -11.2225 16.7957 19.0000 -12.8147 15.6148 19.0000 -14.2836 14.2836 19.0000 -15.6148 12.8147 19.0000 -16.7957 11.2225 19.0000 -17.8148 9.5222 19.0000 -18.6624 7.7302 19.0000 -19.3302 5.8638 19.0000 -19.8119 3.9408 19.0000 -20.1027 1.9799 19.0000 -20.2000 0.0000 19.0000 -20.1027 -1.9799 19.0000 -19.8119 -3.9408 19.0000 -19.3302 -5.8638 19.0000 -18.6624 -7.7302 19.0000 -17.8148 -9.5222 19.0000 -16.7957 -11.2225 19.0000 -15.6148 -12.8147 19.0000 -14.2836 -14.2836 19.0000 -12.8147 -15.6148 19.0000 -11.2225 -16.7957 19.0000 -9.5222 -17.8148 19.0000 -7.7302 -18.6624 19.0000 -5.8638 -19.3302 19.0000 -3.9408 -19.8119 19.0000 -1.9799 -20.1027 19.0000 -0.0000 -20.2000 19.0000 1.9799 -20.1027 19.0000 3.9408 -19.8119 19.0000 5.8638 -19.3302 19.0000 7.7302 -18.6624 19.0000 9.5222 -17.8148 19.0000 11.2225 -16.7957 19.0000 12.8147 -15.6148 19.0000 14.2836 -14.2836 19.0000 15.6148 -12.8147 19.0000 16.7957 -11.2225 19.0000 17.8148 -9.5222 19.0000 18.6624 -7.7302 19.0000 19.3302 -5.8638 19.0000 19.8119 -3.9408 19.0000 20.1027 -1.9799 19.0000 21.8000 0.0000 24.0000 21.6950 2.1368 24.0000 21.3811 4.2530 24.0000 20.8613 6.3282 24.0000 20.1406 8.3425 24.0000 19.2259 10.2764 24.0000 18.1260 12.1114 24.0000 16.8516 13.8298 24.0000 15.4149 15.4149 24.0000 13.8298 16.8516 24.0000 12.1114 18.1260 24.0000 10.2764 19.2259 24.0000 8.3425 20.1406 24.0000 6.3282 20.8613 24.0000 4.2530 21.3811 24.0000 2.1368 21.6950 24.0000 0.0000 21.8000 24.0000 -2.1368 21.6950 24.0000 -4.2530 21.3811 24.0000 -6.3282 20.8613 24.0000 -8.3425 20.1406 24.0000 -10.2764 19.2259 24.0000 -12.1114 18.1260 24.0000 -13.8298 16.8516 24.0000 -15.4149 15.4149 24.0000 -16.8516 13.8298 24.0000 -18.1260 12.1114 24.0000 -19.2259 10.2764 24.0000 -20.1406 8.3425 24.0000 -20.8613 6.3282 24.0000 -21.3811 4.2530 24.0000 -21.6950 2.1368 24.0000 -21.8000 0.0000 24.0000 -21.6950 -2.1368 24.0000 -21.3811 -4.2530 24.0000 -20.8613 -6.3282 24.0000 -20.1406 -8.3425 24.0000 -19.2259 -10.2764 24.0000 -18.1260 -12.1114 24.0000 -16.8516 -13.8298 24.0000 -15.4149 -15.4149 24.0000 -13.8298 -16.8516 24.0000 -12.1114 -18.1260 24.0000 -10.2764 -19.2259 24.0000 -8.3425 -20.1406 24.0000 -6.3282 -20.8613 24.0000 -4.2530 -21.3811 24.0000 -2.1368 -21.6950 24.0000 -0.0000 -21.8000 24.0000 2.1368 -21.6950 24.0000 4.2530 -21.3811 24.0000 6.3282 -20.8613 24.0000 8.3425 -20.1406 24.0000 10.2764 -19.2259 24.0000 12.1114 -18.1260 24.0000 13.8298 -16.8516 24.0000 15.4149 -15.4149 24.0000 16.8516 -13.8298 24.0000 18.1260 -12.1114 24.0000 19.2259 -10.2764 24.0000 20.1406 -8.3425 24.0000 20.8613 -6.3282 24.0000 21.3811 -4.2530 24.0000 21.6950 -2.1368 24.0000 22.0000 0.0000 28.0000 21.8941 2.1564 28.0000 21.5773 4.2920 28.0000 21.0527 6.3863 28.0000 20.3253 8.4190 28.0000 19.4023 10.3707 28.0000 18.2923 12.2225 28.0000 17.0062 13.9567 28.0000 15.5563 15.5563 28.0000 13.9567 17.0062 28.0000 12.2225 18.2923 28.0000 10.3707 19.4023 28.0000 8.4190 20.3253 28.0000 6.3863 21.0527 28.0000 4.2920 21.5773 28.0000 2.1564 21.8941 28.0000 0.0000 22.0000 28.0000 -2.1564 21.8941 28.0000 -4.2920 21.5773 28.0000 -6.3863 21.0527 28.0000 -8.4190 20.3253 28.0000 -10.3707 19.4023 28.0000 -12.2225 18.2923 28.0000 -13.9567 17.0062 28.0000 -15.5563 15.5563 28.0000 -17.0062 13.9567 28.0000 -18.2923 12.2225 28.0000 -19.4023 10.3707 28.0000 -20.3253 8.4190 28.0000 -21.0527 6.3863 28.0000 -21.5773 4.2920 28.0000 -21.8941 2.1564 28.0000 -22.0000 0.0000 28.0000 -21.8941 -2.1564 28.0000 -21.5773 -4.2920 28.0000 -21.0527 -6.3863 28.0000 -20.3253 -8.4190 28.0000 -19.4023 -10.3707 28.0000 -18.2923 -12.2225 28.0000 -17.0062 -13.9567 28.0000 -15.5563 -15.5563 28.0000 -13.9567 -17.0062 28.0000 -12.2225 -18.2923 28.0000 -10.3707 -19.4023 28.0000 -8.4190 -20.3253 28.0000 -6.3863 -21.0527 28.0000 -4.2920 -21.5773 28.0000 -2.1564 -21.8941 28.0000 -0.0000 -22.0000 28.0000 2.1564 -21.8941 28.0000 4.2920 -21.5773 28.0000 6.3863 -21.0527 28.0000 8.4190 -20.3253 28.0000 10.3707 -19.4023 28.0000 12.2225 -18.2923 28.0000 13.9567 -17.0062 28.0000 15.5563 -15.5563 28.0000 17.0062 -13.9567 28.0000 18.2923 -12.2225 28.0000 19.4023 -10.3707 28.0000 20.3253 -8.4190 28.0000 21.0527 -6.3863 28.0000 21.5773 -4.2920 28.0000 21.8941 -2.1564 28.0000 21.2000 0.0000 32.0000 21.0979 2.0780 32.0000 20.7926 4.1359 32.0000 20.2871 6.1540 32.0000 19.5862 8.1129 32.0000 18.6967 9.9936 32.0000 17.6272 11.7781 32.0000 16.3878 13.4491 32.0000 14.9907 14.9907 32.0000 13.4491 16.3878 32.0000 11.7781 17.6272 32.0000 9.9936 18.6967 32.0000 8.1129 19.5862 32.0000 6.1540 20.2871 32.0000 4.1359 20.7926 32.0000 2.0780 21.0979 32.0000 0.0000 21.2000 32.0000 -2.0780 21.0979 32.0000 -4.1359 20.7926 32.0000 -6.1540 20.2871 32.0000 -8.1129 19.5862 32.0000 -9.9936 18.6967 32.0000 -11.7781 17.6272 32.0000 -13.4491 16.3878 32.0000 -14.9907 14.9907 32.0000 -16.3878 13.4491 32.0000 -17.6272 11.7781 32.0000 -18.6967 9.9936 32.0000 -19.5862 8.1129 32.0000 -20.2871 6.1540 32.0000 -20.7926 4.1359 32.0000 -21.0979 2.0780 32.0000 -21.2000 0.0000 32.0000 -21.0979 -2.0780 32.0000 -20.7926 -4.1359 32.0000 -20.2871 -6.1540 32.0000 -19.5862 -8.1129 32.0000 -18.6967 -9.9936 32.0000 -17.6272 -11.7781 32.0000 -16.3878 -13.4491 32.0000 -14.9907 -14.9907 32.0000 -13.4491 -16.3878 32.0000 -11.7781 -17.6272 32.0000 -9.9936 -18.6967 32.0000 -8.1129 -19.5862 32.0000 -6.1540 -20.2871 32.0000 -4.1359 -20.7926 32.0000 -2.0780 -21.0979 32.0000 -0.0000 -21.2000 32.0000 2.0780 -21.0979 32.0000 4.1359 -20.7926 32.0000 6.1540 -20.2871 32.0000 8.1129 -19.5862 32.0000 9.9936 -18.6967 32.0000 11.7781 -17.6272 32.0000 13.4491 -16.3878 32.0000 14.9907 -14.9907 32.0000 16.3878 -13.4491 32.0000 17.6272 -11.7781 32.0000 18.6967 -9.9936 32.0000 19.5862 -8.1129 32.0000 20.2871 -6.1540 32.0000 20.7926 -4.1359 32.0000 21.0979 -2.0780 32.0000 19.2000 0.0000 36.0000 19.1075 1.8819 36.0000 18.8311 3.7457 36.0000 18.3733 5.5735 36.0000 17.7385 7.3475 36.0000 16.9329 9.0508 36.0000 15.9642 10.6669 36.0000 14.8418 12.1804 36.0000 13.5765 13.5765 36.0000 12.1804 14.8418 36.0000 10.6669 15.9642 36.0000 9.0508 16.9329 36.0000 7.3475 17.7385 36.0000 5.5735 18.3733 36.0000 3.7457 18.8311 36.0000 1.8819 19.1075 36.0000 0.0000 19.2000 36.0000 -1.8819 19.1075 36.0000 -3.7457 18.8311 36.0000 -5.5735 18.3733 36.0000 -7.3475 17.7385 36.0000 -9.0508 16.9329 36.0000 -10.6669 15.9642 36.0000 -12.1804 14.8418 36.0000 -13.5765 13.5765 36.0000 -14.8418 12.1804 36.0000 -15.9642 10.6669 36.0000 -16.9329 9.0508 36.0000 -17.7385 7.3475 36.0000 -18.3733 5.5735 36.0000 -18.8311 3.7457 36.0000 -19.1075 1.8819 36.0000 -19.2000 0.0000 36.0000 -19.1075 -1.8819 36.0000 -18.8311 -3.7457 36.0000 -18.3733 -5.5735 36.0000 -17.7385 -7.3475 36.0000 -16.9329 -9.0508 36.0000 -15.9642 -10.6669 36.0000 -14.8418 -12.1804 36.0000 -13.5765 -13.5765 36.0000 -12.1804 -14.8418 36.0000 -10.6669 -15.9642 36.0000 -9.0508 -16.9329 36.0000 -7.3475 -17.7385 36.0000 -5.5735 -18.3733 36.0000 -3.7457 -18.8311 36.0000 -1.8819 -19.1075 36.0000 -0.0000 -19.2000 36.0000 1.8819 -19.1075 36.0000 3.7457 -18.8311 36.0000 5.5735 -18.3733 36.0000 7.3475 -17.7385 36.0000 9.0508 -16.9329 36.0000 10.6669 -15.9642 36.0000 12.1804 -14.8418 36.0000 13.5765 -13.5765 36.0000 14.8418 -12.1804 36.0000 15.9642 -10.6669 36.0000 16.9329 -9.0508 36.0000 17.7385 -7.3475 36.0000 18.3733 -5.5735 36.0000 18.8311 -3.7457 36.0000 19.1075 -1.8819 36.0000 16.2000 0.0000 40.0000 16.1220 1.5879 40.0000 15.8887 3.1605 40.0000 15.5024 4.7026 40.0000 14.9668 6.1995 40.0000 14.2871 7.6366 40.0000 13.4698 9.0002 40.0000 12.5228 10.2772 40.0000 11.4551 11.4551 40.0000 10.2772 12.5228 40.0000 9.0002 13.4698 40.0000 7.6366 14.2871 40.0000 6.1995 14.9668 40.0000 4.7026 15.5024 40.0000 3.1605 15.8887 40.0000 1.5879 16.1220 40.0000 0.0000 16.2000 40.0000 -1.5879 16.1220 40.0000 -3.1605 15.8887 40.0000 -4.7026 15.5024 40.0000 -6.1995 14.9668 40.0000 -7.6366 14.2871 40.0000 -9.0002 13.4698 40.0000 -10.2772 12.5228 40.0000 -11.4551 11.4551 40.0000 -12.5228 10.2772 40.0000 -13.4698 9.0002 40.0000 -14.2871 7.6366 40.0000 -14.9668 6.1995 40.0000 -15.5024 4.7026 40.0000 -15.8887 3.1605 40.0000 -16.1220 1.5879 40.0000 -16.2000 0.0000 40.0000 -16.1220 -1.5879 40.0000 -15.8887 -3.1605 40.0000 -15.5024 -4.7026 40.0000 -14.9668 -6.1995 40.0000 -14.2871 -7.6366 40.0000 -13.4698 -9.0002 40.0000 -12.5228 -10.2772 40.0000 -11.4551 -11.4551 40.0000 -10.2772 -12.5228 40.0000 -9.0002 -13.4698 40.0000 -7.6366 -14.2871 40.0000 -6.1995 -14.9668 40.0000 -4.7026 -15.5024 40.0000 -3.1605 -15.8887 40.0000 -1.5879 -16.1220 40.0000 -0.0000 -16.2000 40.0000 1.5879 -16.1220 40.0000 3.1605 -15.8887 40.0000 4.7026 -15.5024 40.0000 6.1995 -14.9668 40.0000 7.6366 -14.2871 40.0000 9.0002 -13.4698 40.0000 10.2772 -12.5228 40.0000 11.4551 -11.4551 40.0000 12.5228 -10.2772 40.0000 13.4698 -9.0002 40.0000 14.2871 -7.6366 40.0000 14.9668 -6.1995 40.0000 15.5024 -4.7026 40.0000 15.8887 -3.1605 40.0000 16.1220 -1.5879 40.0000 13.0000 0.0000 44.0000 12.9374 1.2742 44.0000 12.7502 2.5362 44.0000 12.4402 3.7737 44.0000 12.0104 4.9749 44.0000 11.4650 6.1282 44.0000 10.8091 7.2224 44.0000 10.0491 8.2471 44.0000 9.1924 9.1924 44.0000 8.2471 10.0491 44.0000 7.2224 10.8091 44.0000 6.1282 11.4650 44.0000 4.9749 12.0104 44.0000 3.7737 12.4402 44.0000 2.5362 12.7502 44.0000 1.2742 12.9374 44.0000 0.0000 13.0000 44.0000 -1.2742 12.9374 44.0000 -2.5362 12.7502 44.0000 -3.7737 12.4402 44.0000 -4.9749 12.0104 44.0000 -6.1282 11.4650 44.0000 -7.2224 10.8091 44.0000 -8.2471 10.0491 44.0000 -9.1924 9.1924 44.0000 -10.0491 8.2471 44.0000 -10.8091 7.2224 44.0000 -11.4650 6.1282 44.0000 -12.0104 4.9749 44.0000 -12.4402 3.7737 44.0000 -12.7502 2.5362 44.0000 -12.9374 1.2742 44.0000 -13.0000 0.0000 44.0000 -12.9374 -1.2742 44.0000 -12.7502 -2.5362 44.0000 -12.4402 -3.7737 44.0000 -12.0104 -4.9749 44.0000 -11.4650 -6.1282 44.0000 -10.8091 -7.2224 44.0000 -10.0491 -8.2471 44.0000 -9.1924 -9.1924 44.0000 -8.2471 -10.0491 44.0000 -7.2224 -10.8091 44.0000 -6.1282 -11.4650 44.0000 -4.9749 -12.0104 44.0000 -3.7737 -12.4402 44.0000 -2.5362 -12.7502 44.0000 -1.2742 -12.9374 44.0000 -0.0000 -13.0000 44.0000 1.2742 -12.9374 44.0000 2.5362 -12.7502 44.0000 3.7737 -12.4402 44.0000 4.9749 -12.0104 44.0000 6.1282 -11.4650 44.0000 7.2224 -10.8091 44.0000 8.2471 -10.0491 44.0000 9.1924 -9.1924 44.0000 10.0491 -8.2471 44.0000 10.8091 -7.2224 44.0000 11.4650 -6.1282 44.0000 12.0104 -4.9749 44.0000 12.4402 -3.7737 44.0000 12.7502 -2.5362 44.0000 12.9374 -1.2742 44.0000 10.4000 0.0000 47.5000 10.3499 1.0194 47.5000 10.2002 2.0289 47.5000 9.9522 3.0190 47.5000 9.6083 3.9799 47.5000 9.1720 4.9025 47.5000 8.6473 5.7779 47.5000 8.0393 6.5977 47.5000 7.3539 7.3539 47.5000 6.5977 8.0393 47.5000 5.7779 8.6473 47.5000 4.9025 9.1720 47.5000 3.9799 9.6083 47.5000 3.0190 9.9522 47.5000 2.0289 10.2002 47.5000 1.0194 10.3499 47.5000 0.0000 10.4000 47.5000 -1.0194 10.3499 47.5000 -2.0289 10.2002 47.5000 -3.0190 9.9522 47.5000 -3.9799 9.6083 47.5000 -4.9025 9.1720 47.5000 -5.7779 8.6473 47.5000 -6.5977 8.0393 47.5000 -7.3539 7.3539 47.5000 -8.0393 6.5977 47.5000 -8.6473 5.7779 47.5000 -9.1720 4.9025 47.5000 -9.6083 3.9799 47.5000 -9.9522 3.0190 47.5000 -10.2002 2.0289 47.5000 -10.3499 1.0194 47.5000 -10.4000 0.0000 47.5000 -10.3499 -1.0194 47.5000 -10.2002 -2.0289 47.5000 -9.9522 -3.0190 47.5000 -9.6083 -3.9799 47.5000 -9.1720 -4.9025 47.5000 -8.6473 -5.7779 47.5000 -8.0393 -6.5977 47.5000 -7.3539 -7.3539 47.5000 -6.5977 -8.0393 47.5000 -5.7779 -8.6473 47.5000 -4.9025 -9.1720 47.5000 -3.9799 -9.6083 47.5000 -3.0190 -9.9522 47.5000 -2.0289 -10.2002 47.5000 -1.0194 -10.3499 47.5000 -0.0000 -10.4000 47.5000 1.0194 -10.3499 47.5000 2.0289 -10.2002 47.5000 3.0190 -9.9522 47.5000 3.9799 -9.6083 47.5000 4.9025 -9.1720 47.5000 5.7779 -8.6473 47.5000 6.5977 -8.0393 47.5000 7.3539 -7.3539 47.5000 8.0393 -6.5977 47.5000 8.6473 -5.7779 47.5000 9.1720 -4.9025 47.5000 9.6083 -3.9799 47.5000 9.9522 -3.0190 47.5000 10.2002 -2.0289 47.5000 10.3499 -1.0194 47.5000 9.4000 0.0000 50.0000 9.3547 0.9214 50.0000 9.2194 1.8338 50.0000 8.9952 2.7287 50.0000 8.6845 3.5972 50.0000 8.2901 4.4311 50.0000 7.8158 5.2224 50.0000 7.2663 5.9633 50.0000 6.6468 6.6468 50.0000 5.9633 7.2663 50.0000 5.2224 7.8158 50.0000 4.4311 8.2901 50.0000 3.5972 8.6845 50.0000 2.7287 8.9952 50.0000 1.8338 9.2194 50.0000 0.9214 9.3547 50.0000 0.0000 9.4000 50.0000 -0.9214 9.3547 50.0000 -1.8338 9.2194 50.0000 -2.7287 8.9952 50.0000 -3.5972 8.6845 50.0000 -4.4311 8.2901 50.0000 -5.2224 7.8158 50.0000 -5.9633 7.2663 50.0000 -6.6468 6.6468 50.0000 -7.2663 5.9633 50.0000 -7.8158 5.2224 50.0000 -8.2901 4.4311 50.0000 -8.6845 3.5972 50.0000 -8.9952 2.7287 50.0000 -9.2194 1.8338 50.0000 -9.3547 0.9214 50.0000 -9.4000 0.0000 50.0000 -9.3547 -0.9214 50.0000 -9.2194 -1.8338 50.0000 -8.9952 -2.7287 50.0000 -8.6845 -3.5972 50.0000 -8.2901 -4.4311 50.0000 -7.8158 -5.2224 50.0000 -7.2663 -5.9633 50.0000 -6.6468 -6.6468 50.0000 -5.9633 -7.2663 50.0000 -5.2224 -7.8158 50.0000 -4.4311 -8.2901 50.0000 -3.5972 -8.6845 50.0000 -2.7287 -8.9952 50.0000 -1.8338 -9.2194 50.0000 -0.9214 -9.3547 50.0000 -0.0000 -9.4000 50.0000 0.9214 -9.3547 50.0000 1.8338 -9.2194 50.0000 2.7287 -8.9952 50.0000 3.5972 -8.6845 50.0000 4.4311 -8.2901 50.0000 5.2224 -7.8158 50.0000 5.9633 -7.2663 50.0000 6.6468 -6.6468 50.0000 7.2663 -5.9633 50.0000 7.8158 -5.2224 50.0000 8.2901 -4.4311 50.0000 8.6845 -3.5972 50.0000 8.9952 -2.7287 50.0000 9.2194 -1.8338 50.0000 9.3547 -0.9214 50.0000 9.2000 0.0000 53.0000 9.1557 0.9018 53.0000 9.0232 1.7948 53.0000 8.8039 2.6706 53.0000 8.4997 3.5207 53.0000 8.1137 4.3368 53.0000 7.6495 5.1112 53.0000 7.1117 5.8364 53.0000 6.5054 6.5054 53.0000 5.8364 7.1117 53.0000 5.1112 7.6495 53.0000 4.3368 8.1137 53.0000 3.5207 8.4997 53.0000 2.6706 8.8039 53.0000 1.7948 9.0232 53.0000 0.9018 9.1557 53.0000 0.0000 9.2000 53.0000 -0.9018 9.1557 53.0000 -1.7948 9.0232 53.0000 -2.6706 8.8039 53.0000 -3.5207 8.4997 53.0000 -4.3368 8.1137 53.0000 -5.1112 7.6495 53.0000 -5.8364 7.1117 53.0000 -6.5054 6.5054 53.0000 -7.1117 5.8364 53.0000 -7.6495 5.1112 53.0000 -8.1137 4.3368 53.0000 -8.4997 3.5207 53.0000 -8.8039 2.6706 53.0000 -9.0232 1.7948 53.0000 -9.1557 0.9018 53.0000 -9.2000 0.0000 53.0000 -9.1557 -0.9018 53.0000 -9.0232 -1.7948 53.0000 -8.8039 -2.6706 53.0000 -8.4997 -3.5207 53.0000 -8.1137 -4.3368 53.0000 -7.6495 -5.1112 53.0000 -7.1117 -5.8364 53.0000 -6.5054 -6.5054 53.0000 -5.8364 -7.1117 53.0000 -5.1112 -7.6495 53.0000 -4.3368 -8.1137 53.0000 -3.5207 -8.4997 53.0000 -2.6706 -8.8039 53.0000 -1.7948 -9.0232 53.0000 -0.9018 -9.1557 53.0000 -0.0000 -9.2000 53.0000 0.9018 -9.1557 53.0000 1.7948 -9.0232 53.0000 2.6706 -8.8039 53.0000 3.5207 -8.4997 53.0000 4.3368 -8.1137 53.0000 5.1112 -7.6495 53.0000 5.8364 -7.1117 53.0000 6.5054 -6.5054 53.0000 7.1117 -5.8364 53.0000 7.6495 -5.1112 53.0000 8.1137 -4.3368 53.0000 8.4997 -3.5207 53.0000 8.8039 -2.6706 53.0000 9.0232 -1.7948 53.0000 9.1557 -0.9018 53.0000 10.0000 0.0000 56.0000 9.9518 0.9802 56.0000 9.8079 1.9509 56.0000 9.5694 2.9028 56.0000 9.2388 3.8268 56.0000 8.8192 4.7140 56.0000 8.3147 5.5557 56.0000 7.7301 6.3439 56.0000 7.0711 7.0711 56.0000 6.3439 7.7301 56.0000 5.5557 8.3147 56.0000 4.7140 8.8192 56.0000 3.8268 9.2388 56.0000 2.9028 9.5694 56.0000 1.9509 9.8079 56.0000 0.9802 9.9518 56.0000 0.0000 10.0000 56.0000 -0.9802 9.9518 56.0000 -1.9509 9.8079 56.0000 -2.9028 9.5694 56.0000 -3.8268 9.2388 56.0000 -4.7140 8.8192 56.0000 -5.5557 8.3147 56.0000 -6.3439 7.7301 56.0000 -7.0711 7.0711 56.0000 -7.7301 6.3439 56.0000 -8.3147 5.5557 56.0000 -8.8192 4.7140 56.0000 -9.2388 3.8268 56.0000 -9.5694 2.9028 56.0000 -9.8079 1.9509 56.0000 -9.9518 0.9802 56.0000 -10.0000 0.0000 56.0000 -9.9518 -0.9802 56.0000 -9.8079 -1.9509 56.0000 -9.5694 -2.9028 56.0000 -9.2388 -3.8268 56.0000 -8.8192 -4.7140 56.0000 -8.3147 -5.5557 56.0000 -7.7301 -6.3439 56.0000 -7.0711 -7.0711 56.0000 -6.3439 -7.7301 56.0000 -5.5557 -8.3147 56.0000 -4.7140 -8.8192 56.0000 -3.8268 -9.2388 56.0000 -2.9028 -9.5694 56.0000 -1.9509 -9.8079 56.0000 -0.9802 -9.9518 56.0000 -0.0000 -10.0000 56.0000 0.9802 -9.9518 56.0000 1.9509 -9.8079 56.0000 2.9028 -9.5694 56.0000 3.8268 -9.2388 56.0000 4.7140 -8.8192 56.0000 5.5557 -8.3147 56.0000 6.3439 -7.7301 56.0000 7.0711 -7.0711 56.0000 7.7301 -6.3439 56.0000 8.3147 -5.5557 56.0000 8.8192 -4.7140 56.0000 9.2388 -3.8268 56.0000 9.5694 -2.9028 56.0000 9.8079 -1.9509 56.0000 9.9518 -0.9802 56.0000 11.8000 0.0000 59.0000 11.7432 1.1566 59.0000 11.5733 2.3021 59.0000 11.2919 3.4254 59.0000 10.9018 4.5157 59.0000 10.4067 5.5625 59.0000 9.8113 6.5557 59.0000 9.1215 7.4858 59.0000 8.3439 8.3439 59.0000 7.4858 9.1215 59.0000 6.5557 9.8113 59.0000 5.5625 10.4067 59.0000 4.5157 10.9018 59.0000 3.4254 11.2919 59.0000 2.3021 11.5733 59.0000 1.1566 11.7432 59.0000 0.0000 11.8000 59.0000 -1.1566 11.7432 59.0000 -2.3021 11.5733 59.0000 -3.4254 11.2919 59.0000 -4.5157 10.9018 59.0000 -5.5625 10.4067 59.0000 -6.5557 9.8113 59.0000 -7.4858 9.1215 59.0000 -8.3439 8.3439 59.0000 -9.1215 7.4858 59.0000 -9.8113 6.5557 59.0000 -10.4067 5.5625 59.0000 -10.9018 4.5157 59.0000 -11.2919 3.4254 59.0000 -11.5733 2.3021 59.0000 -11.7432 1.1566 59.0000 -11.8000 0.0000 59.0000 -11.7432 -1.1566 59.0000 -11.5733 -2.3021 59.0000 -11.2919 -3.4254 59.0000 -10.9018 -4.5157 59.0000 -10.4067 -5.5625 59.0000 -9.8113 -6.5557 59.0000 -9.1215 -7.4858 59.0000 -8.3439 -8.3439 59.0000 -7.4858 -9.1215 59.0000 -6.5557 -9.8113 59.0000 -5.5625 -10.4067 59.0000 -4.5157 -10.9018 59.0000 -3.4254 -11.2919 59.0000 -2.3021 -11.5733 59.0000 -1.1566 -11.7432 59.0000 -0.0000 -11.8000 59.0000 1.1566 -11.7432 59.0000 2.3021 -11.5733 59.0000 3.4254 -11.2919 59.0000 4.5157 -10.9018 59.0000 5.5625 -10.4067 59.0000 6.5557 -9.8113 59.0000 7.4858 -9.1215 59.0000 8.3439 -8.3439 59.0000 9.1215 -7.4858 59.0000 9.8113 -6.5557 59.0000 10.4067 -5.5625 59.0000 10.9018 -4.5157 59.0000 11.2919 -3.4254 59.0000 11.5733 -2.3021 59.0000 11.7432 -1.1566 59.0000 14.0000 0.0000 61.5000 13.9326 1.3722 61.5000 13.7310 2.7313 61.5000 13.3972 4.0640 61.5000 12.9343 5.3576 61.5000 12.3469 6.5996 61.5000 11.6406 7.7780 61.5000 10.8221 8.8815 61.5000 9.8995 9.8995 61.5000 8.8815 10.8221 61.5000 7.7780 11.6406 61.5000 6.5996 12.3469 61.5000 5.3576 12.9343 61.5000 4.0640 13.3972 61.5000 2.7313 13.7310 61.5000 1.3722 13.9326 61.5000 0.0000 14.0000 61.5000 -1.3722 13.9326 61.5000 -2.7313 13.7310 61.5000 -4.0640 13.3972 61.5000 -5.3576 12.9343 61.5000 -6.5996 12.3469 61.5000 -7.7780 11.6406 61.5000 -8.8815 10.8221 61.5000 -9.8995 9.8995 61.5000 -10.8221 8.8815 61.5000 -11.6406 7.7780 61.5000 -12.3469 6.5996 61.5000 -12.9343 5.3576 61.5000 -13.3972 4.0640 61.5000 -13.7310 2.7313 61.5000 -13.9326 1.3722 61.5000 -14.0000 0.0000 61.5000 -13.9326 -1.3722 61.5000 -13.7310 -2.7313 61.5000 -13.3972 -4.0640 61.5000 -12.9343 -5.3576 61.5000 -12.3469 -6.5996 61.5000 -11.6406 -7.7780 61.5000 -10.8221 -8.8815 61.5000 -9.8995 -9.8995 61.5000 -8.8815 -10.8221 61.5000 -7.7780 -11.6406 61.5000 -6.5996 -12.3469 61.5000 -5.3576 -12.9343 61.5000 -4.0640 -13.3972 61.5000 -2.7313 -13.7310 61.5000 -1.3722 -13.9326 61.5000 -0.0000 -14.0000 61.5000 1.3722 -13.9326 61.5000 2.7313 -13.7310 61.5000 4.0640 -13.3972 61.5000 5.3576 -12.9343 61.5000 6.5996 -12.3469 61.5000 7.7780 -11.6406 61.5000 8.8815 -10.8221 61.5000 9.8995 -9.8995 61.5000 10.8221 -8.8815 61.5000 11.6406 -7.7780 61.5000 12.3469 -6.5996 61.5000 12.9343 -5.3576 61.5000 13.3972 -4.0640 61.5000 13.7310 -2.7313 61.5000 13.9326 -1.3722 61.5000 15.5000 0.0000 63.2000 15.4254 1.5193 63.2000 15.2022 3.0239 63.2000 14.8326 4.4994 63.2000 14.3201 5.9316 63.2000 13.6698 7.3066 63.2000 12.8878 8.6113 63.2000 11.9817 9.8331 63.2000 10.9602 10.9602 63.2000 9.8331 11.9817 63.2000 8.6113 12.8878 63.2000 7.3066 13.6698 63.2000 5.9316 14.3201 63.2000 4.4994 14.8326 63.2000 3.0239 15.2022 63.2000 1.5193 15.4254 63.2000 0.0000 15.5000 63.2000 -1.5193 15.4254 63.2000 -3.0239 15.2022 63.2000 -4.4994 14.8326 63.2000 -5.9316 14.3201 63.2000 -7.3066 13.6698 63.2000 -8.6113 12.8878 63.2000 -9.8331 11.9817 63.2000 -10.9602 10.9602 63.2000 -11.9817 9.8331 63.2000 -12.8878 8.6113 63.2000 -13.6698 7.3066 63.2000 -14.3201 5.9316 63.2000 -14.8326 4.4994 63.2000 -15.2022 3.0239 63.2000 -15.4254 1.5193 63.2000 -15.5000 0.0000 63.2000 -15.4254 -1.5193 63.2000 -15.2022 -3.0239 63.2000 -14.8326 -4.4994 63.2000 -14.3201 -5.9316 63.2000 -13.6698 -7.3066 63.2000 -12.8878 -8.6113 63.2000 -11.9817 -9.8331 63.2000 -10.9602 -10.9602 63.2000 -9.8331 -11.9817 63.2000 -8.6113 -12.8878 63.2000 -7.3066 -13.6698 63.2000 -5.9316 -14.3201 63.2000 -4.4994 -14.8326 63.2000 -3.0239 -15.2022 63.2000 -1.5193 -15.4254 63.2000 -0.0000 -15.5000 63.2000 1.5193 -15.4254 63.2000 3.0239 -15.2022 63.2000 4.4994 -14.8326 63.2000 5.9316 -14.3201 63.2000 7.3066 -13.6698 63.2000 8.6113 -12.8878 63.2000 9.8331 -11.9817 63.2000 10.9602 -10.9602 63.2000 11.9817 -9.8331 63.2000 12.8878 -8.6113 63.2000 13.6698 -7.3066 63.2000 14.3201 -5.9316 63.2000 14.8326 -4.4994 63.2000 15.2022 -3.0239 63.2000 15.4254 -1.5193 63.2000 16.0000 0.0000 64.0000 15.9230 1.5683 64.0000 15.6926 3.1214 64.0000 15.3110 4.6446 64.0000 14.7821 6.1229 64.0000 14.1107 7.5423 64.0000 13.3035 8.8891 64.0000 12.3682 10.1503 64.0000 11.3137 11.3137 64.0000 10.1503 12.3682 64.0000 8.8891 13.3035 64.0000 7.5423 14.1107 64.0000 6.1229 14.7821 64.0000 4.6446 15.3110 64.0000 3.1214 15.6926 64.0000 1.5683 15.9230 64.0000 0.0000 16.0000 64.0000 -1.5683 15.9230 64.0000 -3.1214 15.6926 64.0000 -4.6446 15.3110 64.0000 -6.1229 14.7821 64.0000 -7.5423 14.1107 64.0000 -8.8891 13.3035 64.0000 -10.1503 12.3682 64.0000 -11.3137 11.3137 64.0000 -12.3682 10.1503 64.0000 -13.3035 8.8891 64.0000 -14.1107 7.5423 64.0000 -14.7821 6.1229 64.0000 -15.3110 4.6446 64.0000 -15.6926 3.1214 64.0000 -15.9230 1.5683 64.0000 -16.0000 0.0000 64.0000 -15.9230 -1.5683 64.0000 -15.6926 -3.1214 64.0000 -15.3110 -4.6446 64.0000 -14.7821 -6.1229 64.0000 -14.1107 -7.5423 64.0000 -13.3035 -8.8891 64.0000 -12.3682 -10.1503 64.0000 -11.3137 -11.3137 64.0000 -10.1503 -12.3682 64.0000 -8.8891 -13.3035 64.0000 -7.5423 -14.1107 64.0000 -6.1229 -14.7821 64.0000 -4.6446 -15.3110 64.0000 -3.1214 -15.6926 64.0000 -1.5683 -15.9230 64.0000 -0.0000 -16.0000 64.0000 1.5683 -15.9230 64.0000 3.1214 -15.6926 64.0000 4.6446 -15.3110 64.0000 6.1229 -14.7821 64.0000 7.5423 -14.1107 64.0000 8.8891 -13.3035 64.0000 10.1503 -12.3682 64.0000 11.3137 -11.3137 64.0000 12.3682 -10.1503 64.0000 13.3035 -8.8891 64.0000 14.1107 -7.5423 64.0000 14.7821 -6.1229 64.0000 15.3110 -4.6446 64.0000 15.6926 -3.1214 64.0000 15.9230 -1.5683 64.0000 0.0000 0.0000 0.0000 0.0000 0.0000 64.0000</float_array>
          <technique_common>
            <accessor source="#vase-positions-array" count="1410" stride="3">
              <param name="X" type="float"/><param name="Y" type="float"/><param name="Z" type="float"/>
            </accessor>
          </technique_common>
        </source>
        <vertices id="vase-vertices">
          <input semantic="POSITION" source="#vase-positions"/>
        </vertices>
        <triangles count="2816">
          <input semantic="VERTEX" source="#vase-vertices" offset="0"/>
          <p>0 1 65 0 65 64 1 2 66 1 66 65 2 3 67 2 67 66 3 4 68 3 68 67 4 5 69 4 69 68 5 6 70 5 70 69 6 7 71 6 71 70 7 8 72 7 72 71 8 9 73 8 73 72 9 10 74 9 74 73 10 11 75 10 75 74 11 12 76 11 76 75 12 13 77 12 77 76 13 14 78 13 78 77 14 15 79 14 79 78 15 16 80 15 80 79 16 17 81 16 81 80 17 18 82 17 82 81 18 19 83 18 83 82 19 20 84 19 84 83 20 21 85 20 85 84 21 22 86 21 86 85 22 23 87 22 87 86 23 24 88 23 88 87 24 25 89 24 89 88 25 26 90 25 90 89 26 27 91 26 91 90 27 28 92 27 92 91 28 29 93 28 93 92 29 30 94 29 94 93 30 31 95 30 95 94 31 32 96 31 96 95 32 33 97 32 97 96 33 34 98 33 98 97 34 35 99 34 99 98 35 36 100 35 100 99 36 37 101 36 101 100 37 38 102 37 102 101 38 39 103 38 103 102 39 40 104 39 104 103 40 41 105 40 105 104 41 42 106 41 106 105 42 43 107 42 107 106 43 44 108 43 108 107 44 45 109 44 109 108 45 46 110 45 110 109 46 47 111 46 111 110 47 48 112 47 112 111 48 49 113 48 113 112 49 50 114 49 114 113 50 51 115 50 115 114 51 52 116 51 116 115 52 53 117 52 117 116 53 54 118 53 118 117 54 55 119 54 119 118 55 56 120 55 120 119 56 57 121 56 121 120 57 58 122 57 122 121 58 59 123 58 123 122 59 60 124 59 124 123 60 61 125 60 125 124 61 62 126 61 126 125 62 63 127 62 127 126 63 0 64 63 64 127 64 65 129 64 129 128 65 66 130 65 130 129 66 67 131 66 131 130 67 68 132 67 132 131 68 69 133 68 133 132 69 70 134 69 134 133 70 71 135 70 135 134 71 72 136 71 136 135 72 73 137 72 137 136 73 74 138 73 138 137 74 75 139 74 139 138 75 76 140 75 140 139 76 77 141 76 141 140 77 78 142 77 142 141 78 79 143 78 143 142 79 80 144 79 144 143 80 81 145 80 145 144 81 82 146 81 146 145 82 83 147 82 147 146 83 84 148 83 148 147 84 85 149 84 149 148 85 86 150 85 150 149 86 87 151 86 151 150 87 88 152 87 152 151 88 89 153 88 153 152 89 90 154 89 154 153 90 91 155 90 155 154 91 92 156 91 156 155 92 93 157 92 157 156 93 94 158 93 158 157 94 95 159 94 159 158 95 96 160 95 160 159 96 97 161 96 161 160 97 98 162 97 162 161 98 99 163 98 163 162 99 100 164 99 164 163 100 101 165 100 165 164 101 102 166 101 166 165 102 103 167 102 167 166 103 104 168 103 168 167 104 105 169 104 169 168 105 106 170 105 170 169 106 107 171 106 171 170 107 108 172 107 172 171 108 109 173 108 173 172 109 110 174 109 174 173 110 111 175 110 175 174 111 112 176 111 176 175 112 113 177 112 177 176 113 114 178 113 178 177 114 115 179 114 179 178 115 116 180 115 180 179 116 117 181 116 181 180 117 118 182 117 182 181 118 119 183 118 183 182 119 120 184 119 184 183 120 121 185 120 185 184 121 122 186 121 186 185 122 123 187 122 187 186 123 124 188 123 188 187 124 125 189 124 189 188 125 126 190 125 190 189 126 127 191 126 191 190 127 64 128 127 128 191 128 129 193 128 193 192 129 130 194 129 194 193 130 131 195 130 195 194 131 132 196 131 196 195 132 133 197 132 197 196 133 134 198 133 198 197 134 135 199 134 199 198 135 136 200 135 200 199 136 137 201 136 201 200 137 138 202 137 202 201 138 139 203 138 203 202 139 140 204 139 204 203 140 141 205 140 205 204 141 142 206 141 206 205 142 143 207 142 207 206 143 144 208 143 208 207 144 145 209 144 209 208 145 146 210 145 210 209 146 147 211 146 211 210 147 148 212 147 212 211 148 149 213 148 213 212 149 150 214 149 214 213 150 151 215 150 215 214 151 152 216 151 216 215 152 153 217 152 217 216 153 154 218 153 218 217 154 155 219 154 219 218 155 156 220 155 220 219 156 157 221 156 221 220 157 158 222 157 222 221 158 159 223 158 223 222 159 160 224 159 224 223 160 161 225 160 225 224 161 162 226 161 226 225 162 163 227 162 227 226 163 164 228 163 228 227 164 165 229 164 229 228 165 166 230 165 230 229 166 167 231 166 231 230 167 168 232 167 232 231 168 169 233 168 233 232 169 170 234 169 234 233 170 171 235 170 235 234 171 172 236 171 236 235 172 173 237 172 237 236 173 174 238 173 238 237 174 175 239 174 239 238 175 176 240 175 240 239 176 177 241 176 241 240 177 178 242 177 242 241 178 179 243 178 243 242 179 180 244 179 244 243 180 181 245 180 245 244 181 182 246 181 246 245 182 183 247 182 247 246 183 184 248 183 248 247 184 185 249 184 249 248 185 186 250 185 250 249 186 187 251 186 251 250 187 188 252 187 252 251 188 189 253 188 253 252 189 190 254 189 254 253 190 191 255 190 255 254 191 128 192 191 192 255 192 193 257 192 257 256 193 194 258 193 258 257 194 195 259 194 259 258 195 196 260 195 260 259 196 197 261 196 261 260 197 198 262 197 262 261 198 199 263 198 263 262 199 200 264 199 264 263 200 201 265 200 265 264 201 202 266 201 266 265 202 203 267 202 267 266 203 204 268 203 268 267 204 205 269 204 269 268 205 206 270 205 270 269 206 207 271 206 271 270 207 208 272 207 272 271 208 209 273 208 273 272 209 210 274 209 274 273 210 211 275 210 275 274 211 212 276 211 276 275 212 213 277 212 277 276 213 214 278 213 278 277 214 215 279 214 279 278 215 216 280 215 280 279 216 217 281 216 281 280 217 218 282 217 282 281 218 219 283 218 283 282 219 220 284 219 284 283 220 221 285 220 285 284 221 222 286 221 286 285 222 223 287 222 287 286 223 224 288 223 288 287 224 225 289 224 289 288 225 226 290 225 290 289 226 227 291 226 291 290 227 228 292 227 292 291 228 229 293 228 293 292 229 230 294 229 294 293 230 231 295 230 295 294 231 232 296 231 296 295 232 233 297 232 297 296 233 234 298 233 298 297 234 235 299 234 299 298 235 236 300 235 300 299 236 237 301 236 301 300 237 238 302 237 302 301 238 239 303 238 303 302 239 240 304 239 304 303 240 241 305 240 305 304 241 242 306 241 306 305 242 243 307 242 307 306 243 244 308 243 308 307 244 245 309 244 309 308 245 246 310 245 310 309 246 247 311 246 311 310 247 248 312 247 312 311 248 249 313 248 313 312 249 250 314 249 314 313 250 251 315 250 315 314 251 252 316 251 316 315 252 253 317 252 317 316 253 254 318 253 318 317 254 255 319 254 319 318 255 192 256 255 256 319 256 257 321 256 321 320 257 258 322 257 322 321 258 259 323 258 323 322 259 260 324 259 324 323 260 261 325 260 325 324 261 262 326 261 326 325 262 263 327 262 327 326 263 264 328 263 328 327 264 265 329 264 329 328 265 266 330 265 330 329 266 267 331 266 331 330 267 268 332 267 332 331 268 269 333 268 333 332 269 270 334 269 334 333 270 271 335 270 335 334 271 272 336 271 336 335 272 273 337 272 337 336 273 274 338 273 338 337 274 275 339 274 339 338 275 276 340 275 340 339 276 277 341 276 341 340 277 278 342 277 342 341 278 279 343 278 343 342 279 280 344 279 344 343 280 281 345 280 345 344 281 282 346 281 346 345 282 283 347 282 347 346 283 284 348 283 348 347 284 285 349 284 349 348 285 286 350 285 350 349 286 287 351 286 351 350 287 288 352 287 352 351 288 289 353 288 353 352 289 290 354 289 354 353 290 291 355 290 355 354 291 292 356 291 356 355 292 293 357 292 357 356 293 294 358 293 358 357 294 295 359 294 359 358 295 296 360 295 360 359 296 297 361 296 361 360 297 298 362 297 362 361 298 299 363 298 363 362 299 300 364 299 364 363 300 301 365 300 365 364 301 302 366 301 366 365 302 303 367 302 367 366 303 304 368 303 368 367 304 305 369 304 369 368 305 306 370 305 370 369 306 307 371 306 371 370 307 308 372 307 372 371 308 309 373 308 373 372 309 310 374 309 374 373 310 311 375 310 375 374 311 312 376 311 376 375 312 313 377 312 377 376 313 314 378 313 378 377 314 315 379 314 379 378 315 316 380 315 380 379 316 317 381 316 381 380 317 318 382 317 382 381 318 319 383 318 383 382 319 256 320 319 320 383 320 321 385 320 385 384 321 322 386 321 386 385 322 323 387 322 387 386 323 324 388 323 388 387 324 325 389 324 389 388 325 326 390 325 390 389 326 327 391 326 391 390 327 328 392 327 392 391 328 329 393 328 393 392 329 330 394 329 394 393 330 331 395 330 395 394 331 332 396 331 396 395 332 333 397 332 397 396 333 334 398 333 398 397 334 335 399 334 399 398 335 336 400 335 400 399 336 337 401 336 401 400 337 338 402 337 402 401 338 339 403 338 403 402 339 340 404 339 404 403 340 341 405 340 405 404 341 342 406 341 406 405 342 343 407 342 407 406 343 344 408 343 408 407 344 345 409 344 409 408 345 346 410 345 410 409 346 347 411 346 411 410 347 348 412 347 412 411 348 349 413 348 413 412 349 350 414 349 414 413 350 351 415 350 415 414 351 352 416 351 416 415 352 353 417 352 417 416 353 354 418 353 418 417 354 355 419 354 419 418 355 356 420 355 420 419 356 357 421 356 421 420 357 358 422 357 422 421 358 359 423 358 423 422 359 360 424 359 424 423 360 361 425 360 425 424 361 362 426 361 426 425 362 363 427 362 427 426 363 364 428 363 428 427 364 365 429 364 429 428 365 366 430 365 430 429 366 367 431 366 431 430 367 368 432 367 432 431 368 369 433 368 433 432 369 370 434 369 434 433 370 371 435 370 435 434 371 372 436 371 436 435 372 373 437 372 437 436 373 374 438 373 438 437 374 375 439 374 439 438 375 376 440 375 440 439 376 377 441 376 441 440 377 378 442 377 442 441 378 379 443 378 443 442 379 380 444 379 444 443 380 381 445 380 445 444 381 382 446 381 446 445 382 383 447 382 447 446 383 320 384 383 384 447 384 385 449 384 449 448 385 386 450 385 450 449 386 387 451 386 451 450 387 388 452 387 452 451 388 389 453 388 453 452 389 390 454 389 454 453 390 391 455 390 455 454 391 392 456 391 456 455 392 393 457 392 457 456 393 394 458 393 458 457 394 395 459 394 459 458 395 396 460 395 460 459 396 397 461 396 461 460 397 398 462 397 462 461 398 399 463 398 463 462 399 400 464 399 464 463 400 401 465 400 465 464 401 402 466 401 466 465 402 403 467 402 467 466 403 404 468 403 468 467 404 405 469 404 469 468 405 406 470 405 470 469 406 407 471 406 471 470 407 408 472 407 472 471 408 409 473 408 473 472 409 410 474 409 474 473 410 411 475 410 475 474 411 412 476 411 476 475 412 413 477 412 477 476 413 414 478 413 478 477 414 415 479 414 479 478 415 416 480 415 480 479 416 417 481 416 481 480 417 418 482 417 482 481 418 419 483 418 483 482 419 420 484 419 484 483 420 421 485 420 485 484 421 422 486 421 486 485 422 423 487 422 487 486 423 424 488 423 488 487 424 425 489 424 489 488 425 426 490 425 490 489 426 427 491 426 491 490 427 428 492 427 492 491 428 429 493 428 493 492 429 430 494 429 494 493 430 431 495 430 495 494 431 432 496 431 496 495 432 433 497 432 497 496 433 434 498 433 498 497 434 435 499 434 499 498 435 436 500 435 500 499 436 437 501 436 501 500 437 438 502 437 502 501 438 439 503 438 503 502 439 440 504 439 504 503 440 441 505 440 505 504 441 442 506 441 506 505 442 443 507 442 507 506 443 444 508 443 508 507 444 445 509 444 509 508 445 446 510 445 510 509 446 447 511 446 511 510 447 384 448 447 448 511 448 449 513 448 513 512 449 450 514 449 514 513 450 451 515 450 515 514 451 452 516 451 516 515 452 453 517 452 517 516 453 454 518 453 518 517 454 455 519 454 519 518 455 456 520 455 520 519 456 457 521 456 521 520 457 458 522 457 522 521 458 459 523 458 523 522 459 460 524 459 524 523 460 461 525 460 525 524 461 462 526 461 526 525 462 463 527 462 527 526 463 464 528 463 528 527 464 465 529 464 529 528 465 466 530 465 530 529 466 467 531 466 531 530 467 468 532 467 532 531 468 469 533 468 533 532 469 470 534 469 534 533 470 471 535 470 535 534 471 472 536 471 536 535 472 473 537 472 537 536 473 474 538 473 538 537 474 475 539 474 539 538 475 476 540 475 540 539 476 477 541 476 541 540 477 478 542 477 542 541 478 479 543 478 543 542 479 480 544 479 544 543 480 481 545 480 545 544 481 482 546 481 546 545 482 483 547 482 547 546 483 484 548 483 548 547 484 485 549 484 549 548 485 486 550 485 550 549 486 487 551 486 551 550 487 488 552 487 552 551 488 489 553 488 553 552 489 490 554 489 554 553 490 491 555 490 555 554 491 492 556 491 556 555 492 493 557 492 557 556 493 494 558 493 558 557 494 495 559 494 559 558 495 496 560 495 560 559 496 497 561 496 561 560 497 498 562 497 562 561 498 499 563 498 563 562 499 500 564 499 564 563 500 501 565 500 565 564 501 502 566 501 566 565 502 503 567 502 567 566 503 504 568 503 568 567 504 505 569 504 569 568 505 506 570 505 570 569 506 507 571 506 571 570 507 508 572 507 572 571 508 509 573 508 573 572 509 510 574 509 574 573 510 511 575 510 575 574 511 448 512 511 512 575 512 513 577 512 577 576 513 514 578 513 578 577 514 515 579 514 579 578 515 516 580 515 580 579 516 517 581 516 581 580 517 518 582 517 582 581 518 519 583 518 583 582 519 520 584 519 584 583 520 521 585 520 585 584 521 522 586 521 586 585 522 523 587 522 587 586 523 524 588 523 588 587 524 525 589 524 589 588 525 526 590 525 590 589 526 527 591 526 591 590 527 528 592 527 592 591 528 529 593 528 593 592 529 530 594 529 594 593 530 531 595 530 595 594 531 532 596 531 596 595 532 533 597 532 597 596 533 534 598 533 598 597 534 535 599 534 599 598 535 536 600 535 600 599 536 537 601 536 601 600 537 538 602 537 602 601 538 539 603 538 603 602 539 540 604 539 604 603 540 541 605 540 605 604 541 542 606 541 606 605 542 543 607 542 607 606 543 544 608 543 608 607 544 545 609 544 609 608 545 546 610 545 610 609 546 547 611 546 611 610 547 548 612 547 612 611 548 549 613 548 613 612 549 550 614 549 614 613 550 551 615 550 615 614 551 552 616 551 616 615 552 553 617 552 617 616 553 554 618 553 618 617 554 555 619 554 619 618 555 556 620 555 620 619 556 557 621 556 621 620 557 558 622 557 622 621 558 559 623 558 623 622 559 560 624 559 624 623 560 561 625 560 625 624 561 562 626 561 626 625 562 563 627 562 627 626 563 564 628 563 628 627 564 565 629 564 629 628 565 566 630 565 630 629 566 567 631 566 631 630 567 568 632 567 632 631 568 569 633 568 633 632 569 570 634 569 634 633 570 571 635 570 635 634 571 572 636 571 636 635 572 573 637 572 637 636 573 574 638 573 638 637 574 575 639 574 639 638 575 512 576 575 576 639 576 577 641 576 641 640 577 578 642 577 642 641 578 579 643 578 643 642 579 580 644 579 644 643 580 581 645 580 645 644 581 582 646 581 646 645 582 583 647 582 647 646 583 584 648 583 648 647 584 585 649 584 649 648 585 586 650 585 650 649 586 587 651 586 651 650 587 588 652 587 652 651 588 589 653 588 653 652 589 590 654 589 654 653 590 591 655 590 655 654 591 592 656 591 656 655 592 593 657 592 657 656 593 594 658 593 658 657 594 595 659 594 659 658 595 596 660 595 660 659 596 597 661 596 661 660 597 598 662 597 662 661 598 599 663 598 663 662 599 600 664 599 664 663 600 601 665 600 665 664 601 602 666 601 666 665 602 603 667 602 667 666 603 604 668 603 668 667 604 605 669 604 669 668 605 606 670 605 670 669 606 607 671 606 671 670 607 608 672 607 672 671 608 609 673 608 673 672 609 610 674 609 674 673 610 611 675 610 675 674 611 612 676 611 676 675 612 613 677 612 677 676 613 614 678 613 678 677 614 615 679 614 679 678 615 616 680 615 680 679 616 617 681 616 681 680 617 618 682 617 682 681 618 619 683 618 683 682 619 620 684 619 684 683 620 621 685 620 685 684 621 622 686 621 686 685 622 623 687 622 687 686 623 624 688 623 688 687 624 625 689 624 689 688 625 626 690 625 690 689 626 627 691 626 691 690 627 628 692 627 692 691 628 629 693 628 693 692 629 630 694 629 694 693 630 631 695 630 695 694 631 632 696 631 696 695 632 633 697 632 697 696 633 634 698 633 698 697 634 635 699 634 699 698 635 636 700 635 700 699 636 637 701 636 701 700 637 638 702 637 702 701 638 639 703 638 703 702 639 576 640 639 640 703 640 641 705 640 705 704 641 642 706 641 706 705 642 643 707 642 707 706 643 644 708 643 708 707 644 645 709 644 709 708 645 646 710 645 710 709 646 647 711 646 711 710 647 648 712 647 712 711 648 649 713 648 713 712 649 650 714 649 714 713 650 651 715 650 715 714 651 652 716 651 716 715 652 653 717 652 717 716 653 654 718 653 718 717 654 655 719 654 719 718 655 656 720 655 720 719 656 657 721 656 721 720 657 658 722 657 722 721 658 659 723 658 723 722 659 660 724 659 724 723 660 661 725 660 725 724 661 662 726 661 726 725 662 663 727 662 727 726 663 664 728 663 728 727 664 665 729 664 729 728 665 666 730 665 730 729 666 667 731 666 731 730 667 668 732 667 732 731 668 669 733 668 733 732 669 670 734 669 734 733 670 671 735 670 735 734 671 672 736 671 736 735 672 673 737 672 737 736 673 674 738 673 738 737 674 675 739 674 739 738 675 676 740 675 740 739 676 677 741 676 741 740 677 678 742 677 742 741 678 679 743 678 743 742 679 680 744 679 744 743 680 681 745 680 745 744 681 682 746 681 746 745 682 683 747 682 747 746 683 684 748 683 748 747 684 685 749 684 749 748 685 686 750 685 750 749 686 687 751 686 751 750 687 688 752 687 752 751 688 689 753 688 753 752 689 690 754 689 754 753 690 691 755 690 755 754 691 692 756 691 756 755 692 693 757 692 757 756 693 694 758 693 758 757 694 695 759 694 759 758 695 696 760 695 760 759 696 697 761 696 761 760 697 698 762 697 762 761 698 699 763 698 763 762 699 700 764 699 764 763 700 701 765 700 765 764 701 702 766 701 766 765 702 703 767 702 767 766 703 640 704 703 704 767 704 705 769 704 769 768 705 706 770 705 770 769 706 707 771 706 771 770 707 708 772 707 772 771 708 709 773 708 773 772 709 710 774 709 774 773 710 711 775 710 775 774 711 712 776 711 776 775 712 713 777 712 777 776 713 714 778 713 778 777 714 715 779 714 779 778 715 716 780 715 780 779 716 717 781 716 781 780 717 718 782 717 782 781 718 719 783 718 783 782 719 720 784 719 784 783 720 721 785 720 785 784 721 722 786 721 786 785 722 723 787 722 787 786 723 724 788 723 788 787 724 725 789 724 789 788 725 726 790 725 790 789 726 727 791 726 791 790 727 728 792 727 792 791 728 729 793 728 793 792 729 730 794 729 794 793 730 731 795 730 795 794 731 732 796 731 796 795 732 733 797 732 797 796 733 734 798 733 798 797 734 735 799 734 799 798 735 736 800 735 800 799 736 737 801 736 801 800 737 738 802 737 802 801 738 739 803 738 803 802 739 740 804 739 804 803 740 741 805 740 805 804 741 742 806 741 806 805 742 743 807 742 807 806 743 744 808 743 808 807 744 745 809 744 809 808 745 746 810 745 810 809 746 747 811 746 811 810 747 748 812 747 812 811 748 749 813 748 813 812 749 750 814 749 814 813 750 751 815 750 815 814 751 752 816 751 816 815 752 753 817 752 817 816 753 754 818 753 818 817 754 755 819 754 819 818 755 756 820 755 820 819 756 757 821 756 821 820 757 758 822 757 822 821 758 759 823 758 823 822 759 760 824 759 824 823 760 761 825 760 825 824 761 762 826 761 826 825 762 763 827 762 827 826 763 764 828 763 828 827 764 765 829 764 829 828 765 766 830 765 830 829 766 767 831 766 831 830 767 704 768 767 768 831 768 769 833 768 833 832 769 770 834 769 834 833 770 771 835 770 835 834 771 772 836 771 836 835 772 773 837 772 837 836 773 774 838 773 838 837 774 775 839 774 839 838 775 776 840 775 840 839 776 777 841 776 841 840 777 778 842 777 842 841 778 779 843 778 843 842 779 780 844 779 844 843 780 781 845 780 845 844 781 782 846 781 846 845 782 783 847 782 847 846 783 784 848 783 848 847 784 785 849 784 849 848 785 786 850 785 850 849 786 787 851 786 851 850 787 788 852 787 852 851 788 789 853 788 853 852 789 790 854 789 854 853 790 791 855 790 855 854 791 792 856 791 856 855 792 793 857 792 857 856 793 794 858 793 858 857 794 795 859 794 859 858 795 796 860 795 860 859 796 797 861 796 861 860 797 798 862 797 862 861 798 799 863 798 863 862 799 800 864 799 864 863 800 801 865 800 865 864 801 802 866 801 866 865 802 803 867 802 867 866 803 804 868 803 868 867 804 805 869 804 869 868 805 806 870 805 870 869 806 807 871 806 871 870 807 808 872 807 872 871 808 809 873 808 873 872 809 810 874 809 874 873 810 811 875 810 875 874 811 812 876 811 876 875 812 813 877 812 877 876 813 814 878 813 878 877 814 815 879 814 879 878 815 816 880 815 880 879 816 817 881 816 881 880 817 818 882 817 882 881 818 819 883 818 883 882 819 820 884 819 884 883 820 821 885 820 885 884 821 822 886 821 886 885 822 823 887 822 887 886 823 824 888 823 888 887 824 825 889 824 889 888 825 826 890 825 890 889 826 827 891 826 891 890 827 828 892 827 892 891 828 829 893 828 893 892 829 830 894 829 894 893 830 831 895 830 895 894 831 768 832 831 832 895 832 833 897 832 897 896 833 834 898 833 898 897 834 835 899 834 899 898 835 836 900 835 900 899 836 837 901 836 901 900 837 838 902 837 902 901 838 839 903 838 903 902 839 840 904 839 904 903 840 841 905 840 905 904 841 842 906 841 906 905 842 843 907 842 907 906 843 844 908 843 908 907 844 845 909 844 909 908 845 846 910 845 910 909 846 847 911 846 911 910 847 848 912 847 912 911 848 849 913 848 913 912 849 850 914 849 914 913 850 851 915 850 915 914 851 852 916 851 916 915 852 853 917 852 917 916 853 854 918 853 918 917 854 855 919 854 919 918 855 856 920 855 920 919 856 857 921 856 921 920 857 858 922 857 922 921 858 859 923 858 923 922 859 860 924 859 924 923 860 861 925 860 925 924 861 862 926 861 926 925 862 863 927 862 927 926 863 864 928 863 928 927 864 865 929 864 929 928 865 866 930 865 930 929 866 867 931 866 931 930 867 868 932 867 932 931 868 869 933 868 933 932 869 870 934 869 934 933 870 871 935 870 935 934 871 872 936 871 936 935 872 873 937 872 937 936 873 874 938 873 938 937 874 875 939 874 939 938 875 876 940 875 940 939 876 877 941 876 941 940 877 878 942 877 942 941 878 879 943 878 943 942 879 880 944 879 944 943 880 881 945 880 945 944 881 882 946 881 946 945 882 883 947 882 947 946 883 884 948 883 948 947 884 885 949 884 949 948 885 886 950 885 950 949 886 887 951 886 951 950 887 888 952 887 952 951 888 889 953 888 953 952 889 890 954 889 954 953 890 891 955 890 955 954 891 892 956 891 956 955 892 893 957 892 957 956 893 894 958 893 958 957 894 895 959 894 959 958 895 832 896 895 896 959 896 897 961 896 961 960 897 898 962 897 962 961 898 899 963 898 963 962 899 900 964 899 964 963 900 901 965 900 965 964 901 902 966 901 966 965 902 903 967 902 967 966 903 904 968 903 968 967 904 905 969 904 969 968 905 906 970 905 970 969 906 907 971 906 971 970 907 908 972 907 972 971 908 909 973 908 973 972 909 910 974 909 974 973 910 911 975 910 975 974 911 912 976 911 976 975 912 913 977 912 977 976 913 914 978 913 978 977 914 915 979 914 979 978 915 916 980 915 980 979 916 917 981 916 981 980 917 918 982 917 982 981 918 919 983 918 983 982 919 920 984 919 984 983 920 921 985 920 985 984 921 922 986 921 986 985 922 923 987 922 987 986 923 924 988 923 988 987 924 925 989 924 989 988 925 926 990 925 990 989 926 927 991 926 991 990 927 928 992 927 992 991 928 929 993 928 993 992 929 930 994 929 994 993 930 931 995 930 995 994 931 932 996 931 996 995 932 933 997 932 997 996 933 934 998 933 998 997 934 935 999 934 999 998 935 936 1000 935 1000 999 936 937 1001 936 1001 1000 937 938 1002 937 1002 1001 938 939 1003 938 1003 1002 939 940 1004 939 1004 1003 940 941 1005 940 1005 1004 941 942 1006 941 1006 1005 942 943 1007 942 1007 1006 943 944 1008 943 1008 1007 944 945 1009 944 1009 1008 945 946 1010 945 1010 1009 946 947 1011 946 1011 1010 947 948 1012 947 1012 1011 948 949 1013 948 1013 1012 949 950 1014 949 1014 1013 950 951 1015 950 1015 1014 951 952 1016 951 1016 1015 952 953 1017 952 1017 1016 953 954 1018 953 1018 1017 954 955 1019 954 1019 1018 955 956 1020 955 1020 1019 956 957 1021 956 1021 1020 957 958 1022 957 1022 1021 958 959 1023 958 1023 1022 959 896 960 959 960 1023 960 961 1025 960 1025 1024 961 962 1026 961 1026 1025 962 963 1027 962 1027 1026 963 964 1028 963 1028 1027 964 965 1029 964 1029 1028 965 966 1030 965 1030 1029 966 967 1031 966 1031 1030 967 968 1032 967 1032 1031 968 969 1033 968 1033 1032 969 970 1034 969 1034 1033 970 971 1035 970 1035 1034 971 972 1036 971 1036 1035 972 973 1037 972 1037 1036 973 974 1038 973 1038 1037 974 975 1039 974 1039 1038 975 976 1040 975 1040 1039 976 977 1041 976 1041 1040 977 978 1042 977 1042 1041 978 979 1043 978 1043 1042 979 980 1044 979 1044 1043 980 981 1045 980 1045 1044 981 982 1046 981 1046 1045 982 983 1047 982 1047 1046 983 984 1048 983 1048 1047 984 985 1049 984 1049 1048 985 986 1050 985 1050 1049 986 987 1051 986 1051 1050 987 988 1052 987 1052 1051 988 989 1053 988 1053 1052 989 990 1054 989 1054 1053 990 991 1055 990 1055 1054 991 992 1056 991 1056 1055 992 993 1057 992 1057 1056 993 994 1058 993 1058 1057 994 995 1059 994 1059 1058 995 996 1060 995 1060 1059 996 997 1061 996 1061 1060 997 998 1062 997 1062 1061 998 999 1063 998 1063 1062 999 1000 1064 999 1064 1063 1000 1001 1065 1000 1065 1064 1001 1002 1066 1001 1066 1065 1002 1003 1067 1002 1067 1066 1003 1004 1068 1003 1068 1067 1004 1005 1069 1004 1069 1068 1005 1006 1070 1005 1070 1069 1006 1007 1071 1006 1071 1070 1007 1008 1072 1007 1072 1071 1008 1009 1073 1008 1073 1072 1009 1010 1074 1009 1074 1073 1010 1011 1075 1010 1075 1074 1011 1012 1076 1011 1076 1075 1012 1013 1077 1012 1077 1076 1013 1014 1078 1013 1078 1077 1014 1015 1079 1014 1079 1078 1015 1016 1080 1015 1080 1079 1016 1017 1081 1016 1081 1080 1017 1018 1082 1017 1082 1081 1018 1019 1083 1018 1083 1082 1019 1020 1084 1019 1084 1083 1020 1021 1085 1020 1085 1084 1021 1022 1086 1021 1086 1085 1022 1023 1087 1022 1087 1086 1023 960 1024 1023 1024 1087 1024 1025 1089 1024 1089 1088 1025 1026 1090 1025 1090 1089 1026 1027 1091 1026 1091 1090 1027 1028 1092 1027 1092 1091 1028 1029 1093 1028 1093 1092 1029 1030 1094 1029 1094 1093 1030 1031 1095 1030 1095 1094 1031 1032 1096 1031 1096 1095 1032 1033 1097 1032 1097 1096 1033 1034 1098 1033 1098 1097 1034 1035 1099 1034 1099 1098 1035 1036 1100 1035 1100 1099 1036 1037 1101 1036 1101 1100 1037 1038 1102 1037 1102 1101 1038 1039 1103 1038 1103 1102 1039 1040 1104 1039 1104 1103 1040 1041 1105 1040 1105 1104 1041 1042 1106 1041 1106 1105 1042 1043 1107 1042 1107 1106 1043 1044 1108 1043 1108 1107 1044 1045 1109 1044 1109 1108 1045 1046 1110 1045 1110 1109 1046 1047 1111 1046 1111 1110 1047 1048 1112 1047 1112 1111 1048 1049 1113 1048 1113 1112 1049 1050 1114 1049 1114 1113 1050 1051 1115 1050 1115 1114 1051 1052 1116 1051 1116 1115 1052 1053 1117 1052 1117 1116 1053 1054 1118 1053 1118 1117 1054 1055 1119 1054 1119 1118 1055 1056 1120 1055 1120 1119 1056 1057 1121 1056 1121 1120 1057 1058 1122 1057 1122 1121 1058 1059 1123 1058 1123 1122 1059 1060 1124 1059 1124 1123 1060 1061 1125 1060 1125 1124 1061 1062 1126 1061 1126 1125 1062 1063 1127 1062 1127 1126 1063 1064 1128 1063 1128 1127 1064 1065 1129 1064 1129 1128 1065 1066 1130 1065 1130 1129 1066 1067 1131 1066 1131 1130 1067 1068 1132 1067 1132 1131 1068 1069 1133 1068 1133 1132 1069 1070 1134 1069 1134 1133 1070 1071 1135 1070 1135 1134 1071 1072 1136 1071 1136 1135 1072 1073 1137 1072 1137 1136 1073 1074 1138 1073 1138 1137 1074 1075 1139 1074 1139 1138 1075 1076 1140 1075 1140 1139 1076 1077 1141 1076 1141 1140 1077 1078 1142 1077 1142 1141 1078 1079 1143 1078 1143 1142 1079 1080 1144 1079 1144 1143 1080 1081 1145 1080 1145 1144 1081 1082 1146 1081 1146 1145 1082 1083 1147 1082 1147 1146 1083 1084 1148 1083 1148 1147 1084 1085 1149 1084 1149 1148 1085 1086 1150 1085 1150 1149 1086 1087 1151 1086 1151 1150 1087 1024 1088 1087 1088 1151 1088 1089 1153 1088 1153 1152 1089 1090 1154 1089 1154 1153 1090 1091 1155 1090 1155 1154 1091 1092 1156 1091 1156 1155 1092 1093 1157 1092 1157 1156 1093 1094 1158 1093 1158 1157 1094 1095 1159 1094 1159 1158 1095 1096 1160 1095 1160 1159 1096 1097 1161 1096 1161 1160 1097 1098 1162 1097 1162 1161 1098 1099 1163 1098 1163 1162 1099 1100 1164 1099 1164 1163 1100 1101 1165 1100 1165 1164 1101 1102 1166 1101 1166 1165 1102 1103 1167 1102 1167 1166 1103 1104 1168 1103 1168 1167 1104 1105 1169 1104 1169 1168 1105 1106 1170 1105 1170 1169 1106 1107 1171 1106 1171 1170 1107 1108 1172 1107 1172 1171 1108 1109 1173 1108 1173 1172 1109 1110 1174 1109 1174 1173 1110 1111 1175 1110 1175 1174 1111 1112 1176 1111 1176 1175 1112 1113 1177 1112 1177 1176 1113 1114 1178 1113 1178 1177 1114 1115 1179 1114 1179 1178 1115 1116 1180 1115 1180 1179 1116 1117 1181 1116 1181 1180 1117 1118 1182 1117 1182 1181 1118 1119 1183 1118 1183 1182 1119 1120 1184 1119 1184 1183 1120 1121 1185 1120 1185 1184 1121 1122 1186 1121 1186 1185 1122 1123 1187 1122 1187 1186 1123 1124 1188 1123 1188 1187 1124 1125 1189 1124 1189 1188 1125 1126 1190 1125 1190 1189 1126 1127 1191 1126 1191 1190 1127 1128 1192 1127 1192 1191 1128 1129 1193 1128 1193 1192 1129 1130 1194 1129 1194 1193 1130 1131 1195 1130 1195 1194 1131 1132 1196 1131 1196 1195 1132 1133 1197 1132 1197 1196 1133 1134 1198 1133 1198 1197 1134 1135 1199 1134 1199 1198 1135 1136 1200 1135 1200 1199 1136 1137 1201 1136 1201 1200 1137 1138 1202 1137 1202 1201 1138 1139 1203 1138 1203 1202 1139 1140 1204 1139 1204 1203 1140 1141 1205 1140 1205 1204 1141 1142 1206 1141 1206 1205 1142 1143 1207 1142 1207 1206 1143 1144 1208 1143 1208 1207 1144 1145 1209 1144 1209 1208 1145 1146 1210 1145 1210 1209 1146 1147 1211 1146 1211 1210 1147 1148 1212 1147 1212 1211 1148 1149 1213 1148 1213 1212 1149 1150 1214 1149 1214 1213 1150 1151 1215 1150 1215 1214 1151 1088 1152 1151 1152 1215 1152 1153 1217 1152 1217 1216 1153 1154 1218 1153 1218 1217 1154 1155 1219 1154 1219 1218 1155 1156 1220 1155 1220 1219 1156 1157 1221 1156 1221 1220 1157 1158 1222 1157 1222 1221 1158 1159 1223 1158 1223 1222 1159 1160 1224 1159 1224 1223 1160 1161 1225 1160 1225 1224 1161 1162 1226 1161 1226 1225 1162 1163 1227 1162 1227 1226 1163 1164 1228 1163 1228 1227 1164 1165 1229 1164 1229 1228 1165 1166 1230 1165 1230 1229 1166 1167 1231 1166 1231 1230 1167 1168 1232 1167 1232 1231 1168 1169 1233 1168 1233 1232 1169 1170 1234 1169 1234 1233 1170 1171 1235 1170 1235 1234 1171 1172 1236 1171 1236 1235 1172 1173 1237 1172 1237 1236 1173 1174 1238 1173 1238 1237 1174 1175 1239 1174 1239 1238 1175 1176 1240 1175 1240 1239 1176 1177 1241 1176 1241 1240 1177 1178 1242 1177 1242 1241 1178 1179 1243 1178 1243 1242 1179 1180 1244 1179 1244 1243 1180 1181 1245 1180 1245 1244 1181 1182 1246 1181 1246 1245 1182 1183 1247 1182 1247 1246 1183 1184 1248 1183 1248 1247 1184 1185 1249 1184 1249 1248 1185 1186 1250 1185 1250 1249 1186 1187 1251 1186 1251 1250 1187 1188 1252 1187 1252 1251 1188 1189 1253 1188 1253 1252 1189 1190 1254 1189 1254 1253 1190 1191 1255 1190 1255 1254 1191 1192 1256 1191 1256 1255 1192 1193 1257 1192 1257 1256 1193 1194 1258 1193 1258 1257 1194 1195 1259 1194 1259 1258 1195 1196 1260 1195 1260 1259 1196 1197 1261 1196 1261 1260 1197 1198 1262 1197 1262 1261 1198 1199 1263 1198 1263 1262 1199 1200 1264 1199 1264 1263 1200 1201 1265 1200 1265 1264 1201 1202 1266 1201 1266 1265 1202 1203 1267 1202 1267 1266 1203 1204 1268 1203 1268 1267 1204 1205 1269 1204 1269 1268 1205 1206 1270 1205 1270 1269 1206 1207 1271 1206 1271 1270 1207 1208 1272 1207 1272 1271 1208 1209 1273 1208 1273 1272 1209 1210 1274 1209 1274 1273 1210 1211 1275 1210 1275 1274 1211 1212 1276 1211 1276 1275 1212 1213 1277 1212 1277 1276 1213 1214 1278 1213 1278 1277 1214 1215 1279 1214 1279 1278 1215 1152 1216 1215 1216 1279 1216 1217 1281 1216 1281 1280 1217 1218 1282 1217 1282 1281 1218 1219 1283 1218 1283 1282 1219 1220 1284 1219 1284 1283 1220 1221 1285 1220 1285 1284 1221 1222 1286 1221 1286 1285 1222 1223 1287 1222 1287 1286 1223 1224 1288 1223 1288 1287 1224 1225 1289 1224 1289 1288 1225 1226 1290 1225 1290 1289 1226 1227 1291 1226 1291 1290 1227 1228 1292 1227 1292 1291 1228 1229 1293 1228 1293 1292 1229 1230 1294 1229 1294 1293 1230 1231 1295 1230 1295 1294 1231 1232 1296 1231 1296 1295 1232 1233 1297 1232 1297 1296 1233 1234 1298 1233 1298 1297 1234 1235 1299 1234 1299 1298 1235 1236 1300 1235 1300 1299 1236 1237 1301 1236 1301 1300 1237 1238 1302 1237 1302 1301 1238 1239 1303 1238 1303 1302 1239 1240 1304 1239 1304 1303 1240 1241 1305 1240 1305 1304 1241 1242 1306 1241 1306 1305 1242 1243 1307 1242 1307 1306 1243 1244 1308 1243 1308 1307 1244 1245 1309 1244 1309 1308 1245 1246 1310 1245 1310 1309 1246 1247 1311 1246 1311 1310 1247 1248 1312 1247 1312 1311 1248 1249 1313 1248 1313 1312 1249 1250 1314 1249 1314 1313 1250 1251 1315 1250 1315 1314 1251 1252 1316 1251 1316 1315 1252 1253 1317 1252 1317 1316 1253 1254 1318 1253 1318 1317 1254 1255 1319 1254 1319 1318 1255 1256 1320 1255 1320 1319 1256 1257 1321 1256 1321 1320 1257 1258 1322 1257 1322 1321 1258 1259 1323 1258 1323 1322 1259 1260 1324 1259 1324 1323 1260 1261 1325 1260 1325 1324 1261 1262 1326 1261 1326 1325 1262 1263 1327 1262 1327 1326 1263 1264 1328 1263 1328 1327 1264 1265 1329 1264 1329 1328 1265 1266 1330 1265 1330 1329 1266 1267 1331 1266 1331 1330 1267 1268 1332 1267 1332 1331 1268 1269 1333 1268 1333 1332 1269 1270 1334 1269 1334 1333 1270 1271 1335 1270 1335 1334 1271 1272 1336 1271 1336 1335 1272 1273 1337 1272 1337 1336 1273 1274 1338 1273 1338 1337 1274 1275 1339 1274 1339 1338 1275 1276 1340 1275 1340 1339 1276 1277 1341 1276 1341 1340 1277 1278 1342 1277 1342 1341 1278 1279 1343 1278 1343 1342 1279 1216 1280 1279 1280 1343 1280 1281 1345 1280 1345 1344 1281 1282 1346 1281 1346 1345 1282 1283 1347 1282 1347 1346 1283 1284 1348 1283 1348 1347 1284 1285 1349 1284 1349 1348 1285 1286 1350 1285 1350 1349 1286 1287 1351 1286 1351 1350 1287 1288 1352 1287 1352 1351 1288 1289 1353 1288 1353 1352 1289 1290 1354 1289 1354 1353 1290 1291 1355 1290 1355 1354 1291 1292 1356 1291 1356 1355 1292 1293 1357 1292 1357 1356 1293 1294 1358 1293 1358 1357 1294 1295 1359 1294 1359 1358 1295 1296 1360 1295 1360 1359 1296 1297 1361 1296 1361 1360 1297 1298 1362 1297 1362 1361 1298 1299 1363 1298 1363 1362 1299 1300 1364 1299 1364 1363 1300 1301 1365 1300 1365 1364 1301 1302 1366 1301 1366 1365 1302 1303 1367 1302 1367 1366 1303 1304 1368 1303 1368 1367 1304 1305 1369 1304 1369 1368 1305 1306 1370 1305 1370 1369 1306 1307 1371 1306 1371 1370 1307 1308 1372 1307 1372 1371 1308 1309 1373 1308 1373 1372 1309 1310 1374 1309 1374 1373 1310 1311 1375 1310 1375 1374 1311 1312 1376 1311 1376 1375 1312 1313 1377 1312 1377 1376 1313 1314 1378 1313 1378 1377 1314 1315 1379 1314 1379 1378 1315 1316 1380 1315 1380 1379 1316 1317 1381 1316 1381 1380 1317 1318 1382 1317 1382 1381 1318 1319 1383 1318 1383 1382 1319 1320 1384 1319 1384 1383 1320 1321 1385 1320 1385 1384 1321 1322 1386 1321 1386 1385 1322 1323 1387 1322 1387 1386 1323 1324 1388 1323 1388 1387 1324 1325 1389 1324 1389 1388 1325 1326 1390 1325 1390 1389 1326 1327 1391 1326 1391 1390 1327 1328 1392 1327 1392 1391 1328 1329 1393 1328 1393 1392 1329 1330 1394 1329 1394 1393 1330 1331 1395 1330 1395 1394 1331 1332 1396 1331 1396 1395 1332 1333 1397 1332 1397 1396 1333 1334 1398 1333 1398 1397 1334 1335 1399 1334 1399 1398 1335 1336 1400 1335 1400 1399 1336 1337 1401 1336 1401 1400 1337 1338 1402 1337 1402 1401 1338 1339 1403 1338 1403 1402 1339 1340 1404 1339 1404 1403 1340 1341 1405 1340 1405 1404 1341 1342 1406 1341 1406 1405 1342 1343 1407 1342 1407 1406 1343 1280 1344 1343 1344 1407 1408 1 0 1408 2 1 1408 3 2 1408 4 3 1408 5 4 1408 6 5 1408 7 6 1408 8 7 1408 9 8 1408 10 9 1408 11 10 1408 12 11 1408 13 12 1408 14 13 1408 15 14 1408 16 15 1408 17 16 1408 18 17 1408 19 18 1408 20 19 1408 21 20 1408 22 21 1408 23 22 1408 24 23 1408 25 24 1408 26 25 1408 27 26 1408 28 27 1408 29 28 1408 30 29 1408 31 30 1408 32 31 1408 33 32 1408 34 33 1408 35 34 1408 36 35 1408 37 36 1408 38 37 1408 39 38 1408 40 39 1408 41 40 1408 42 41 1408 43 42 1408 44 43 1408 45 44 1408 46 45 1408 47 46 1408 48 47 1408 49 48 1408 50 49 1408 51 50 1408 52 51 1408 53 52 1408 54 53 1408 55 54 1408 56 55 1408 57 56 1408 58 57 1408 59 58 1408 60 59 1408 61 60 1408 62 61 1408 63 62 1408 0 63 1409 1344 1345 1409 1345 1346 1409 1346 1347 1409 1347 1348 1409 1348 1349 1409 1349 1350 1409 1350 1351 1409 1351 1352 1409 1352 1353 1409 1353 1354 1409 1354 1355 1409 1355 1356 1409 1356 1357 1409 1357 1358 1409 1358 1359 1409 1359 1360 1409 1360 1361 1409 1361 1362 1409 1362 1363 1409 1363 1364 1409 1364 1365 1409 1365 1366 1409 1366 1367 1409 1367 1368 1409 1368 1369 1409 1369 1370 1409 1370 1371 1409 1371 1372 1409 1372 1373 1409 1373 1374 1409 1374 1375 1409 1375 1376 1409 1376 1377 1409 1377 1378 1409 1378 1379 1409 1379 1380 1409 1380 1381 1409 1381 1382 1409 1382 1383 1409 1383 1384 1409 1384 1385 1409 1385 1386 1409 1386 1387 1409 1387 1388 1409 1388 1389 1409 1389 1390 1409 1390 1391 1409 1391 1392 1409 1392 1393 1409 1393 1394 1409 1394 1395 1409 1395 1396 1409 1396 1397 1409 1397 1398 1409 1398 1399 1409 1399 1400 1409 1400 1401 1409 1401 1402 1409 1402 1403 1409 1403 1404 1409 1404 1405 1409 1405 1406 1409 1406 1407 1409 1407 1344</p>
        </triangles>
      </mesh>
    </geometry>
  </library_geometries>
  <library_visual_scenes>
    <visual_scene id="Scene" name="Scene">
      <node id="VaseNode" name="VaseNode" type="NODE">
        <instance_geometry url="#vase"/>
      </node>
    </visual_scene>
  </library_visual_scenes>
  <scene><instance_visual_scene url="#Scene"/></scene>
</COLLADA>
